/* XPM */
static char *TechDraw_ProjLeft[] = {
/* columns rows colors chars-per-pixel */
"60 60 132 2 ",
"   c #2E3436",
".  c #2F3739",
"X  c #2C3A3C",
"o  c #303537",
"O  c #313638",
"+  c #353B3C",
"@  c #383D3F",
"#  c #2C3E41",
"$  c #393F41",
"%  c #2C4042",
"&  c #2B4648",
"*  c #2A4B4C",
"=  c #3C4243",
"-  c #275355",
";  c #285759",
":  c #1A6B6D",
">  c #1D7375",
",  c #1F7779",
"<  c #177B7C",
"1  c #1C7B7D",
"2  c #256264",
"3  c #236E70",
"4  c #257274",
"5  c #217A7C",
"6  c #414647",
"7  c #404648",
"8  c #454A4B",
"9  c #494E4F",
"0  c #494E50",
"q  c #4C5253",
"w  c #515656",
"e  c #525957",
"r  c #535759",
"t  c #565C5B",
"y  c #595D5F",
"u  c #5E6363",
"i  c #626667",
"p  c #636866",
"a  c #626668",
"s  c #656A6A",
"d  c #696D6D",
"f  c #6B706E",
"g  c #6B6F71",
"h  c #6D7272",
"j  c #717674",
"k  c #747976",
"l  c #737678",
"z  c #767A79",
"x  c #797D7D",
"c  c #7D817E",
"v  c #198284",
"b  c #1D8F90",
"n  c #0A9699",
"m  c #079D9F",
"M  c #0A999C",
"N  c #1E9394",
"B  c #149C9F",
"V  c #218C8E",
"C  c #208D90",
"Z  c #089FA1",
"A  c #09A3A5",
"S  c #0AA7A9",
"D  c #0BAAAC",
"F  c #19A0A2",
"G  c #0CAFB1",
"H  c #0EB3B5",
"J  c #0FB6B8",
"K  c #0FB8BA",
"L  c #15B2B4",
"P  c #10BBBD",
"I  c #7E8383",
"U  c #11BFC1",
"Y  c #12C1C3",
"T  c #18C1C3",
"R  c #13C6C8",
"E  c #15CBCD",
"W  c #16CFD1",
"Q  c #16D0D2",
"!  c #828585",
"~  c #858A85",
"^  c #838688",
"/  c #868989",
"(  c #898D8C",
")  c #8C908C",
"_  c #8E9191",
"`  c #929695",
"'  c #959A95",
"]  c #939598",
"[  c #979A9B",
"{  c #9A9D9C",
"}  c #9DA29C",
"|  c #9C9EA1",
" . c #9DA1A1",
".. c #A2A6A3",
"X. c #A7ABA6",
"o. c #A9ADA7",
"O. c #A4A6A8",
"+. c #ABAEAE",
"@. c #ADB1AC",
"#. c #B2B5AF",
"$. c #ADAFB1",
"%. c #B3B5B4",
"&. c #B5B8B3",
"*. c #BABDB6",
"=. c #B5B7B8",
"-. c #B7BAB9",
";. c #BABCBC",
":. c #BCC1BA",
">. c #C1C5BE",
",. c #BFC1C1",
"<. c #C1C3C1",
"1. c #C6C9C5",
"2. c #CACDC6",
"3. c #C6C6C9",
"4. c #C7C9C9",
"5. c #CBCDCD",
"6. c #CDD1C9",
"7. c #D3D7CF",
"8. c #CED0D0",
"9. c #D3D4D3",
"0. c #DBDCDC",
"q. c #DFE1DF",
"w. c #E0E1DE",
"e. c #DFE0E0",
"r. c #E4E5E5",
"t. c #E7E8E6",
"y. c #E8E9E7",
"u. c #ECEDEC",
"i. c #F0F0EF",
"p. c #F4F4F4",
"a. c #F7F8F8",
"s. c #FFFFFF",
/* pixels */
"s.s.s.s.s.s.s.s.s.s.s.s.s.s.s.s.s.s.s.s.s.s.s.s.s.s.s.s.s.s.s.s.s.s.s.s.s.s.s.s.s.s.s.s.s.s.s.s.s.s.s.s.s.s.s.s.s.s.s.s.",
"s.s.s.s.s.s.s.s.s.s.s.s.s.s.s.s.s.s.s.s.s.s.s.s.s.s.s.s.s.s.s.s.s.s.s.s.s.s.s.s.s.s.s.s.s.s.s.s.s.s.s.s.s.s.s.s.s.s.s.s.",
"s.s.s.s.s.s.s.s.s.s.s.s.s.s.s.s.s.s.s.s.s.s.s.s.s.s.s.s.s.s.s.s.s.s.s.s.s.s.s.s.s.s.s.s.s.s.s.s.s.s.s.s.s.s.s.s.s.s.s.s.",
"s.s.s.s.s.s.s.s.s.s.s.s.s.s.s.s.s.s.s.s.s.s.s.s.s.s.s.s.s.s.s.s.s.s.s.s.s.s.s.s.s.s.s.s.s.s.s.s.s.s.s.s.s.s.s.s.s.s.s.s.",
"s.s.s.s.s.s.s.s.s.s.s.s.s.s.s.s.s.s.s.s.s.s.s.s.s.s.s.s.s.s.s.s.s.s.s.s.s.s.s.s.s.s.s.s.s.s.s.s.s.s.s.s.s.s.s.s.s.s.s.s.",
"s.s.s.s.s.s.s.s.s.s.s.s.s.s.s.s.s.s.s.s.s.s.;.( ;.s.s.s.s.s.s.s.s.s.s.s.s.s.s.s.s.s.s.s.s.s.s.s.s.s.s.s.s.s.s.s.s.s.s.s.",
"s.s.s.s.s.s.s.s.s.s.s.s.s.s.s.s.s.s.s.s.8.q       O q _ u.s.s.s.s.s.s.s.s.s.s.s.s.s.s.s.s.s.s.s.s.s.s.s.s.s.s.s.s.s.s.s.",
"s.s.s.s.s.s.s.s.s.s.s.s.s.s.s.s.s.s.8.h     y +.x O     o = h 5.s.s.s.s.s.s.s.s.s.s.s.s.s.s.s.s.s.s.s.s.s.s.s.s.s.s.s.s.",
"s.s.s.s.s.s.s.s.s.s.s.s.s.s.s.s.8.s     q %.s.s.s.a.9.' 8       + u O.a.s.s.s.s.s.s.s.s.s.s.s.s.s.s.s.s.s.s.s.s.s.s.s.s.",
"s.s.s.s.s.s.s.s.s.s.s.s.s.s.8.g     q =.s.s.p.q.t.s.s.s.s.t.%.a         7 x 0.s.s.s.s.s.s.s.s.s.s.s.s.s.s.s.s.s.s.s.s.s.",
"s.s.s.s.s.s.s.s.s.s.s.s.5.s     0 $.a.s.u.[ c *.i = ! 4.p.s.s.s.p.5.` 7       $ s -.s.s.s.s.s.s.s.s.s.s.s.s.s.s.s.s.s.s.",
"s.s.s.s.s.s.s.s.s.s.5.s     0 +.s.s.i.[ =   k *.i         a %.r.s.s.s.s.r.o.t       O r ] u.s.s.s.s.s.s.s.s.s.s.s.s.s.s.",
"s.s.s.s.s.s.s.s.8.h     0 +.s.s.u.[ $       z *.a   ! y +       9 ` 9.a.s.s.s.p.4.! @       = j 5.s.s.s.s.s.s.s.s.s.s.s.",
"s.s.s.s.s.s.8.g     0 $.s.s.i.[ $   X 4 V   k *.a   5.s.s.5.x 7     o O x >.u.s.s.s.a.9.} 7 o     O t  .p.s.s.s.s.s.s.s.",
"s.s.s.s.8.h     0 +.a.s.u.[ $   + 4 U Q N O k *.i o 5.s.s.s.s.s.u.] r O       y O.0.s.s.s.s.u.;.h O     O 7 x 0.s.s.s.s.",
"s.s.0.=     0 $.s.s.i.[ $   X 5 T Q W W N   k *.i   5.s.s.s.s.s.s.s.s.a.$.i @   o   = ! 5.p.s.s.s.p.5.' = o     + 3.s.s.",
"s.s.=   y =.s.s.u._ @   + 5 Y W W W E E N   j *.i   5.s.s.s.s.s.s.s.s.s.s.s.s.0.x 7 o       h -.y.s.s.s.a.<.~ q   o s.s.",
"s.w.  u s.s.s.0.q         ; C E E E E E N   k *.p   5.s.s.s.s.s.s.s.s.s.s.s.s.s.s.s.p. .t O     O 8 I ;.p.s.s.s.u   9.s.",
"s.e.  u i.s.s.s.s.y.=.s         & 3 L Y b   k *.i   5.s.s.s.s.s.s.s.s.s.s.s.s.s.s.s.s.s.s.s.,.=     O ` u.s.s.u.y   5.s.",
"s.t.  t 7...` 9.a.s.s.s.a.9.) =       X *   k *.i o 5.s.s.s.s.s.s.s.s.s.s.s.s.s.s.s.s.s.p.x O   O _ u.s.s.y.;.*.w   8.s.",
"s.r.  y 7.'       d ;.u.s.s.s.s.y.%.t       + d r   5.s.s.s.s.s.s.s.s.s.s.s.s.s.s.s.p.l     O ( u.s.s.y.(   ~ *.w   5.s.",
"s.t.  r 7.'   % X       0 { 0.a.s.s.s.p.3./ + o     $ z 9.s.s.s.s.s.s.s.s.s.s.s.p.x O   O ( u.s.s.y.(       ~ ;.w   8.s.",
"s.r.  y 7.'   5 R F 2 #       O I 1.i.s.s.s.a.0...8       O r  .a.s.s.s.s.s.p.x O   O ( u.s.s.y.(     + =   ~ *.w   8.s.",
"s.r.  t 7.'   5 Y Y Y U L 5 *         u +.r.s.s.s.s.i.<.k         8 x 0.p.x O   O ( u.s.s.y.(     O x a.i   ~ *.w   8.s.",
"s.t.  t 7.'   1 Y U P P P P P P v - X       = ` 9.a.s.s.s.p.9.` @           O ( u.s.s.y.(     @ ^ a.s.s.a   ~ *.w   8.s.",
"s.t.  y 7.`   5 P P P P P K K J P J H B -   o       d ;.u.s.s.s.s.t.%.r o ( u.s.s.y.(     O I a.s.s.s.s.a   ~ *.w   8.s.",
"s.r.  t 7.'   , P P J P J J J H H H H H v   j ` 8         q O.q.s.s.s.s.a.s.s.y.!     + I a.s.s.s.s.s.s.a   ~ *.w   8.s.",
"s.r.  y 7.'   , J P J H J H H H H H D H <   k *.i   | h =       @ ^ 5.p.s.u.!     + / a.s.s.s.s.s.s.s.s.a   ~ *.w   8.s.",
"s.r.o t 7.'   , H H H H H H G H D H D D v   k *.i   5.s.s.u.] w       ( >.}   O I a.s.s.s.s.s.s.s.s.s.s.a   ~ *.w   8.s.",
"s.r.o t 7.'   > H H H H G G D D D D D D <   k *.i   5.s.s.s.s.s.s.x   ( *.}   I s.s.s.s.s.s.s.s.s.s.s.s.a   ~ *.w   6.s.",
"s.r.  t 7.'   > H G G G D D D D S D D S <   k *.i   5.s.s.s.s.s.s.O.  ( *.}   I s.s.s.s.s.s.s.s.s.s.s.s.i   ~ *.w   8.s.",
"s.r.o t 7.'   > G D D D D D S D S D A A < o k *.a   5.s.s.s.s.s.s.O.  ( *.}   I s.s.s.s.s.s.s.s.s.s.s.s.a   ~ *.w   8.s.",
"s.t.  r 7.'   > D D D S S S S S A A A A >   z *.p   z t.s.s.s.s.s.O.  ( *.}   I s.s.s.s.s.s.s.s.s.s.s.s.a   ~ *.w   5.s.",
"s.t.  t 7.'   : D S S S S A A A A A M : X   z :.s       @ i %.s.s...  ( *.}   I s.s.s.s.s.s.s.s.s.s.s.s.a   ~ *.w   8.s.",
"s.r.  y 7.'   : A A A A A A A m M : X   O h 2.7.7.:.) q       O r g   / *.}   ! s.s.s.s.s.s.s.s.s.s.s.s.a   ~ *.w   8.s.",
"s.r.  t 7.'   : A A A A A Z M : X X O h :.7.7.1.7.7.7.7.2.X.d O       ( :.}   ! s.s.s.s.s.s.s.s.s.s.s.s.a   ~ *.w   8.s.",
"s.t.  t 7.`   : Z A m m n : X     f :.7.7.O.r   O f o.6.7.7.7.7.;.p   ( *.}   = O.a.s.s.s.s.s.s.s.s.s.s.p   ~ *.w   8.s.",
"s.t.  y 7.'   : m m n : X   X f :.7.7.X.e     $ .       t _ :.7.7.)   ( *.}         0 ( t.s.s.s.s.s.s.s.p   ~ *.w   8.s.",
"s.t.  t 7.'   : n : X   o f :.7.7.X.e     r ;.s.a.=.i @       = I z   ( *.}   p I @       @ i %.s.s.s.s.i   ~ *.w   8.s.",
"s.r.  t 7.'   - X   O f :.7.7.X.e     r ;.s.s.s.s.s.s.s.0.! 8 o       ( *.}   f 7.7.>.{ q       O w ( y.i   ~ *.w   6.s.",
"s.r.. t 7.'     O f :.7.7.X.e     r ;.s.s.s.s.s.s.s.s.s.s.s.s.p.} 8   ( *.}   t *.6.7.7.7.6.o.h o       O   ~ *.w   8.s.",
"s.r.  t 7.'   q :.7.7.X.e     y ,.s.s.s.s.s.s.s.s.s.s.s.s.s.s.s.s...  ( *.}       + h o.6.7.7.7.7.:.) 6     ~ *.w   8.s.",
"s.t.  t 7.'   . q f q     y ,.s.s.s.s.s.s.s.s.s.s.s.s.s.s.s.s.s.s.O.  ( *.}   r q O       y ' >.7.7.7.&.w   ~ *.w   8.s.",
"s.0.  y 7.*.f =         = [ p.s.s.s.s.s.s.s.s.s.s.s.s.s.s.s.s.s.s.O.  ( *.}   ! s.a.%.u @       = k p o   = } *.w   4.s.",
"s.t.  7 2.7.7.7.#.c w .       7 c 9.s.s.s.s.s.s.s.s.s.s.s.s.s.s.s.O.  ( *.}   I s.s.s.s.s.9.x @ o o   = ! &.*.#.=   0.s.",
"s.s.7   O t ~ *.7.7.7.1.} d $       @ u $.a.s.s.s.s.s.s.s.s.s.s.s.O.  ( *.}   I s.s.s.s.s.;.8   o $ z &.&.&.x $   @ s.s.",
"s.s.u.r O       8 z X.6.7.7.7.@.c 9       O 0 ( t.s.s.s.s.s.s.s.s.O.  ( *.}   I s.s.s.;.7     $ z &.*.#.c $     = r.s.s.",
"s.s.s.s.a.%.p @   .   @ u ` >.7.7.7.:.` i O       $ a %.s.s.s.s.s...  ( *.}   I s.,.q     = z %.*.&.c $ o o 0 1.s.s.s.s.",
"s.s.s.s.s.s.s.s.0.! 8       O w c @.7.7.9.6...h =       X w ` p.s.O.  ( *.}   u 9     $ z *.*.&.c $     q 5.s.s.s.s.s.s.",
"s.s.s.s.s.s.s.s.s.s.s.p.{ r O       = f } 2.7.7.7.*.( t         = r   ( *.}       = z &.*.#.c $ o o 9 4.s.s.s.s.s.s.s.s.",
"s.s.s.s.s.s.s.s.s.s.s.s.s.s.s.;.d $       O t ~ *.7.7.7.1.} f @       ( *.}   $ z &.*.%.c $ o   q 5.s.s.s.s.s.s.s.s.s.s.",
"s.s.s.s.s.s.s.s.s.s.s.s.s.s.s.s.s.s.r.( w .       8 z o.6.7.7.7.@.I 9 ( *.X.c &.*.#.k $ o   9 1.s.s.s.s.s.s.s.s.s.s.s.s.",
"s.s.s.s.s.s.s.s.s.s.s.s.s.s.s.s.s.s.s.s.s.a.=.i @       = s ' 1.7.7.7.1.*.*.*.#.k @     0 4.s.s.s.s.s.s.s.s.s.s.s.s.s.s.",
"s.s.s.s.s.s.s.s.s.s.s.s.s.s.s.s.s.s.s.s.s.s.s.s.s.8.x =       O e ! #.2.*.&.z @     q 5.s.s.s.s.s.s.s.s.s.s.s.s.s.s.s.s.",
"s.s.s.s.s.s.s.s.s.s.s.s.s.s.s.s.s.s.s.s.s.s.s.s.s.s.s.s.i.{ r O .     6 I =     q 5.s.s.s.s.s.s.s.s.s.s.s.s.s.s.s.s.s.s.",
"s.s.s.s.s.s.s.s.s.s.s.s.s.s.s.s.s.s.s.s.s.s.s.s.s.s.s.s.s.s.s.s.;.d @     o = 6.s.s.s.s.s.s.s.s.s.s.s.s.s.s.s.s.s.s.s.s.",
"s.s.s.s.s.s.s.s.s.s.s.s.s.s.s.s.s.s.s.s.s.s.s.s.s.s.s.s.s.s.s.s.s.s.s.0.] 9.s.s.s.s.s.s.s.s.s.s.s.s.s.s.s.s.s.s.s.s.s.s.",
"s.s.s.s.s.s.s.s.s.s.s.s.s.s.s.s.s.s.s.s.s.s.s.s.s.s.s.s.s.s.s.s.s.s.s.s.s.s.s.s.s.s.s.s.s.s.s.s.s.s.s.s.s.s.s.s.s.s.s.s.",
"s.s.s.s.s.s.s.s.s.s.s.s.s.s.s.s.s.s.s.s.s.s.s.s.s.s.s.s.s.s.s.s.s.s.s.s.s.s.s.s.s.s.s.s.s.s.s.s.s.s.s.s.s.s.s.s.s.s.s.s.",
"s.s.s.s.s.s.s.s.s.s.s.s.s.s.s.s.s.s.s.s.s.s.s.s.s.s.s.s.s.s.s.s.s.s.s.s.s.s.s.s.s.s.s.s.s.s.s.s.s.s.s.s.s.s.s.s.s.s.s.s."
};
