/* XPM */
static char *TechDraw_ProjFront[] = {
/* columns rows colors chars-per-pixel */
"60 60 142 2 ",
"   c #2E3436",
".  c #2F3638",
"X  c #303537",
"o  c #303638",
"O  c #343A3C",
"+  c #383D3F",
"@  c #393F41",
"#  c #3C4243",
"$  c #414647",
"%  c #404648",
"&  c #454A4C",
"*  c #494E4F",
"=  c #494E50",
"-  c #4C5253",
";  c #515656",
":  c #525957",
">  c #565C5C",
",  c #595E5F",
"<  c #5E6363",
"1  c #626667",
"2  c #616865",
"3  c #626668",
"4  c #656A6B",
"5  c #696C6D",
"6  c #6D7272",
"7  c #727776",
"8  c #747976",
"9  c #737678",
"0  c #767A79",
"q  c #797D7D",
"w  c #7D817E",
"e  c #1EBBBD",
"r  c #3AACAC",
"t  c #3CAEB0",
"y  c #25B5B6",
"u  c #2DB0B1",
"i  c #29B6B8",
"p  c #21BCBE",
"a  c #35B1B2",
"s  c #7F8383",
"d  c #46ABAC",
"f  c #52AAA9",
"g  c #43B9B9",
"h  c #4ABDBD",
"j  c #69B2AF",
"k  c #78B3AF",
"l  c #6CB4B2",
"z  c #7CB9B6",
"x  c #1AC2C4",
"c  c #1AC9CB",
"v  c #16CFD1",
"b  c #16D0D2",
"n  c #1CD3D5",
"m  c #37CBCC",
"M  c #37CED0",
"N  c #20D5D7",
"B  c #2FD2D4",
"V  c #22D7D9",
"C  c #26D8DA",
"Z  c #2BDBDD",
"A  c #36D4D6",
"S  c #32DBDD",
"D  c #2FDEE0",
"F  c #31DEE0",
"G  c #34E0E2",
"H  c #41C6C8",
"J  c #45CACC",
"K  c #4DC8C9",
"L  c #58C7C9",
"P  c #55CBCC",
"I  c #62CBCB",
"U  c #6FCDCE",
"Y  c #72CED0",
"T  c #828585",
"R  c #858A85",
"E  c #838688",
"W  c #868A8A",
"Q  c #8A8E8E",
"!  c #8C908C",
"~  c #8B8F90",
"^  c #8E9191",
"/  c #939695",
"(  c #969B97",
")  c #939598",
"_  c #979A9B",
"`  c #9A9E9C",
"'  c #9DA29C",
"]  c #9DA1A1",
"[  c #85B9B5",
"{  c #8AB8B5",
"}  c #98BAB5",
"|  c #A3A6A5",
" . c #A7ACA6",
".. c #A9ADA7",
"X. c #A5A9A9",
"o. c #ABAEAE",
"O. c #AEB1AD",
"+. c #B2B5AE",
"@. c #AFB1B2",
"#. c #B2B5B3",
"$. c #B5B8B3",
"%. c #BABDB6",
"&. c #B5B7B8",
"*. c #B7BAB9",
"=. c #BBBDBC",
"-. c #97C1BC",
";. c #A4C2BD",
":. c #C1C5BE",
">. c #82D4D3",
",. c #92D9D9",
"<. c #9CDDDD",
"1. c #BFC1C1",
"2. c #B7CAC3",
"3. c #A2DDDC",
"4. c #ADE2E2",
"5. c #B9E9E8",
"6. c #C1C3C1",
"7. c #C7CAC6",
"8. c #CACEC7",
"9. c #C6C6C9",
"0. c #C7C9C9",
"q. c #CBCDCD",
"w. c #C5D1C9",
"e. c #CDD3CB",
"r. c #D3D7CF",
"t. c #CED0D0",
"y. c #D2D3D3",
"u. c #DBDCDC",
"i. c #E0E1DE",
"p. c #D1EDED",
"a. c #D9F2F1",
"s. c #E5E5E5",
"d. c #E7E8E6",
"f. c #E8E9E7",
"g. c #ECEDEC",
"h. c #F0F0EF",
"j. c #E3F6F6",
"k. c #E9F7F7",
"l. c #EEFAFA",
"z. c #F4F5F4",
"x. c #F4F9F9",
"c. c #FFFFFF",
/* pixels */
"c.c.c.c.c.c.c.c.c.c.c.c.c.c.c.c.c.c.c.c.c.c.c.c.c.c.c.c.c.c.c.c.c.c.c.c.c.c.c.c.c.c.c.c.c.c.c.c.c.c.c.c.c.c.c.c.c.c.c.c.",
"c.c.c.c.c.c.c.c.c.c.c.c.c.c.c.c.c.c.c.c.c.c.c.c.c.c.c.c.c.c.c.c.c.c.c.c.c.c.c.c.c.c.c.c.c.c.c.c.c.c.c.c.c.c.c.c.c.c.c.c.",
"c.c.c.c.c.c.c.c.c.c.c.c.c.c.c.c.c.c.c.c.c.c.c.c.c.c.c.c.c.c.c.c.c.c.c.c.c.c.c.c.c.c.c.c.c.c.c.c.c.c.c.c.c.c.c.c.c.c.c.c.",
"c.c.c.c.c.c.c.c.c.c.c.c.c.c.c.c.c.c.c.c.c.c.c.c.c.c.c.c.c.c.c.c.c.c.c.c.c.c.c.c.c.c.c.c.c.c.c.c.c.c.c.c.c.c.c.c.c.c.c.c.",
"c.c.c.c.c.c.c.c.c.c.c.c.c.c.c.c.c.c.c.c.c.c.c.c.c.c.c.c.c.c.c.c.c.c.c.c.c.c.c.c.c.c.c.c.c.c.c.c.c.c.c.c.c.c.c.c.c.c.c.c.",
"c.c.c.c.c.c.c.c.c.c.c.c.c.c.c.c.c.c.c.c.c.c.=.Q =.c.c.c.c.c.c.c.c.c.c.c.c.c.c.c.c.c.c.c.c.c.c.c.c.c.c.c.c.c.c.c.c.c.c.c.",
"c.c.c.c.c.c.c.c.c.c.c.c.c.c.c.c.c.c.c.c.t.-     . o - ^ g.c.c.c.c.c.c.c.c.c.c.c.c.c.c.c.c.c.c.c.c.c.c.c.c.c.c.c.c.c.c.c.",
"c.c.c.c.c.c.c.c.c.c.c.c.c.c.c.c.c.c.t.6     > @.0 o     X # 6 q.c.c.c.c.c.c.c.c.c.c.c.c.c.c.c.c.c.c.c.c.c.c.c.c.c.c.c.c.",
"c.c.c.c.c.c.c.c.c.c.c.c.c.c.c.c.t.4     - &.c.c.c.c.y.) &       O , X.x.c.c.c.c.c.c.c.c.c.c.c.c.c.c.c.c.c.c.c.c.c.c.c.c.",
"c.c.c.c.c.c.c.c.c.c.c.c.c.c.t.6   . - #.c.c.z.i.s.c.c.c.c.d.#.4       X % q u.c.c.c.c.c.c.c.c.c.c.c.c.c.c.c.c.c.c.c.c.c.",
"c.c.c.c.c.c.c.c.c.c.c.c.q.4     = o.c.c.g._ q %.1 @ T 7.z.c.c.c.z.8./ #       + 3 =.c.c.c.c.c.c.c.c.c.c.c.c.c.c.c.c.c.c.",
"c.c.c.c.c.c.c.c.c.c.q.4     = o.c.c.h._ @   8 %.1         1 #.s.c.c.c.c.s.o.:       o : ) g.c.c.c.c.c.c.c.c.c.c.c.c.c.c.",
"c.c.c.c.c.c.c.c.t.6     = o.c.c.g._ @   o   0 %.3   T , O       * ) y.c.c.c.c.z.7.T O     X # 7 q.c.c.c.c.c.c.c.c.c.c.c.",
"c.c.c.c.c.c.t.6     = o.c.c.h._ @   O T |   7 %.1   q.c.c.q.q %     X o 0 :.g.c.c.c.z.u.` & .     o : ] z.c.c.c.c.c.c.c.",
"c.c.c.c.t.6     = o.c.c.g._ @   O T g.c.#.  8 %.3   q.c.c.c.c.c.g.) -         , X.u.c.c.c.c.g.=.6 o     o & q u.c.c.c.c.",
"c.c.u.#     = o.c.c.g._ @   O ~ g.c.c.c.#.  8 %.1   q.c.c.c.c.c.c.c.c.c.@.3 +   X   @ T 7.z.c.c.c.z.q.( # X     O 9.c.c.",
"c.c.#   , &.c.c.g.^ +   O ~ g.c.c.c.c.c.@.  8 %.1   q.c.c.c.c.c.c.c.c.c.c.c.c.u.q &       o 6 *.f.c.c.c.x.6.E -   o c.c.",
"c.i.  < c.c.c.u.-       O < X.c.c.c.c.c.@.  8 %.1   q.c.c.c.c.c.c.c.c.c.c.c.c.c.c.c.z.] > o     X & s =.z.c.c.c.<   t.c.",
"c.i.  1 h.c.c.c.c.f.&.4         & s u.c.#.  8 %.1   q.c.c.c.c.c.c.c.c.c.c.c.c.c.c.c.c.c.c.c.1.#     o / h.c.c.g.,   q.c.",
"c.s.  > r.z P <.k.c.c.c.x.t.^ @       @ ;   8 %.1   q.c.c.c.c.c.c.c.c.c.c.c.c.c.c.c.c.c.z.0 .   o ~ g.c.c.f.%.%.;   t.c.",
"c.s.  > r.l G G F J Y 5.c.c.c.c.f.#.>       O 5 :   q.c.c.c.c.c.c.c.c.c.c.c.c.c.c.c.z.9     o Q g.c.c.f.Q   R %.;   q.c.",
"c.s.  > r.l G G G G G G A L 3.x.c.c.c.z.q.W O       # 9 y.c.c.c.c.c.c.c.c.c.c.c.z.q o   . Q g.c.c.f.Q       R %.; X t.c.",
"c.d.  > r.k G G G G G G G G G S J >.p.c.c.c.c.u.| &       o > ] x.c.c.c.c.c.z.0 o   o Q g.c.c.f.Q     O #   R %.;   t.c.",
"c.s.. > r.l G G G G G G G G G G F F F M I 4.x.c.c.c.h.6.7       o & q u.z.q o   o Q g.c.c.f.Q     . 0 c.3   R %.;   t.c.",
"c.s.  > r.l G G G G G F F G F G G F F F F F S K ,.j.c.c.c.z.y./ +           X Q g.c.c.f.Q     o E c.c.c.<   R %.;   t.c.",
"c.s.  > r.l G G F G D G F F F F F D D F F F Z F F Z m U 5.c.c.c.c.f.#.> X Q g.c.c.f.Q     o s c.c.c.c.c.3   R %.;   t.c.",
"c.s.  > r.l G G F S F F D F F F D Z Z F Z S D Z Z F Z Z Z B P <.l.c.c.c.c.c.c.d.T     o s c.c.c.c.c.c.c.3   R %.;   t.c.",
"c.s.  , r.l S F D D F F D Z D Z Z D D Z D D D Z Z Z D Z D Z Z Z Z H >.a.c.f.T   . o T x.c.c.c.c.c.c.c.c.3   R %.:   e.c.",
"c.d.  , r.l G D D Z D F Z D D Z Z Z S D Z Z Z Z Z Z Z Z Z Z Z C Z Z C h :.'     s c.c.c.c.c.c.c.c.c.c.c.3   R %.;   t.c.",
"c.d.  > r.l D D D F Z Z Z Z Z Z D Z Z Z Z Z Z Z Z C Z Z Z Z C Z C Z Z h %.'   s c.c.c.c.c.c.c.c.c.c.c.c.3   R %.;   t.c.",
"c.s.  > r.l Z Z Z Z Z Z D Z Z Z Z Z Z Z Z C Z Z Z C Z Z Z C Z C Z C C h %.`   s c.c.c.c.c.c.c.c.c.c.c.c.3   R %.;   t.c.",
"c.s.  , r.l Z Z Z Z Z Z Z Z Z Z Z Z C Z Z Z C C C Z C C C Z C C C C C h %.'   s c.c.c.c.c.c.c.c.c.c.c.c.3   R %.;   t.c.",
"c.s.  > r.l Z Z Z Z Z Z Z Z C Z Z C Z Z C C C C Z C C C C C C C C C C h %.' X T c.c.c.c.c.c.c.c.c.c.c.c.1   R %.;   t.c.",
"c.s.  > r.l C Z Z C Z Z C C Z C Z C C C C C C C C C C C C C V C V V V h %.' X R c.c.c.c.c.c.c.c.c.c.c.c.1   R %.;   t.c.",
"c.s.  > r.l Z Z C Z C C C C C C C C C C C C C C C C C V V C V V V V V h %.'   s c.c.c.c.c.c.c.c.c.c.c.c.1   T %.;   q.c.",
"c.d.  , r.l C C C C C C C C C C V C C C C C V V V V C V V C V V V N N h ;.'   T c.c.c.c.c.c.c.c.c.c.c.c.1   R %.;   t.c.",
"c.s.  > r.l C C C C C C C C V C C V V V V V V V V V V V N V V V V V V h %.'   # | c.c.c.c.c.c.c.c.c.c.c.1 X R %.;   t.c.",
"c.s.  , r.j V C C V V C C C V V V V V C V V V V V V V V V N n V V n n g %.'         * Q s.c.c.c.c.c.c.c.1 X R %.;   t.c.",
"c.s.  > r.j V C C V V V C V V V V V V V V V V V n V n N n V N V n V n h %.'   < w O     X O 1 #.c.c.c.c.1   R %.;   t.c.",
"c.s.  > r.l V V V V V V V n V V V V n N V n n V n V V n n n n n n n n h %.'   6 r.r.:.` -       X ; Q f.1   R %.;   t.c.",
"c.s.  , r.j V V V V V V n V V n N N N N N n n N n n n n n n n n n n n g %.'   : %.r.r.r.r.8...6 X X X X X X R %.;   t.c.",
"c.s.  > y.j V V V n n V V n n V n n n N N n n n n n n n n n n n n n n g %.'   .   o 6 ..e.r.r.r.r.;.! $ X X R %.;   t.c.",
"c.s.  , r.j N N n V n V V n n V n n n n n n n n n n n n n n n n v n n g %.'   : -         > ( :.r.r.r.$.; X R %.;   t.c.",
"c.u.X , r.-.r c n N n n n n n n n n n n n n n n n n n b n b b n n v n g %.' . s c.c.@.< O       # 8 2 X X # ' $.;   0.c.",
"c.s.  % 8.r.r.r.} f i n n n n n n n n n b n n n n n b n b b b n v b b g %.'   s c.c.c.c.c.y.q @       # T $.%.O.#   u.c.",
"c.c.$   X : R %.r.r.r.2.l a c n n n n n n n b b b b b b b b b b v b b g %.'   s c.c.c.c.c.=.&     # 0 $.%.+.w #   O c.c.",
"c.c.g.:         & 0  .e.r.r.e.{ d p n n b b n b b b b b b b b b b b b t %.'   s c.c.c.=.&     @ 0 $.%.+.w @     # s.c.c.",
"c.c.c.c.c.#.1 +   X   O < / 7.r.r.r.;.f u v b b b b b b b b b b b b b g %.'   s c.1.*     # 0 $.%.$.w #     = 9.c.c.c.c.",
"c.c.c.c.c.c.c.c.u.T &       o ; q O.r.r.r.w.k r x b b b b b b b b b n a ;.' X 2 & X   # w +.%.$.w #     - q.c.c.c.c.c.c.",
"c.c.c.c.c.c.c.c.c.c.c.z.` : o       # 5 ' 8.r.r.r.-.f y b b b b b b n a :.| X X   @ 0 $.%.+.w @     = 0.c.c.c.c.c.c.c.c.",
"c.c.c.c.c.c.c.c.c.c.c.c.c.c.c.=.5 #       o : W %.r.r.r.2.j a c b b b h %.' X + q $.%.#.w #     - 8.c.c.c.c.c.c.c.c.c.c.",
"c.c.c.c.c.c.c.c.c.c.c.c.c.c.c.c.c.c.s.Q - o       & 0  .e.r.r.e.[ d e t %.| w $.%.+.0 +     * 7.c.c.c.c.c.c.c.c.c.c.c.c.",
"c.c.c.c.c.c.c.c.c.c.c.c.c.c.c.c.c.c.c.c.c.c.#.3 O o   o + 4 ( 7.r.r.r.;.%.%.%.+.8 +     = 0.c.c.c.c.c.c.c.c.c.c.c.c.c.c.",
"c.c.c.c.c.c.c.c.c.c.c.c.c.c.c.c.c.c.c.c.c.c.c.c.c.t.q #       o : R %.8.%.%.8 +     - q.c.c.c.c.c.c.c.c.c.c.c.c.c.c.c.c.",
"c.c.c.c.c.c.c.c.c.c.c.c.c.c.c.c.c.c.c.c.c.c.c.c.c.c.c.c.z.` : o X X   % w $ X X - q.c.c.c.c.c.c.c.c.c.c.c.c.c.c.c.c.c.c.",
"c.c.c.c.c.c.c.c.c.c.c.c.c.c.c.c.c.c.c.c.c.c.c.c.c.c.c.c.c.c.c.c.=.5 O     X % 8.c.c.c.c.c.c.c.c.c.c.c.c.c.c.c.c.c.c.c.c.",
"c.c.c.c.c.c.c.c.c.c.c.c.c.c.c.c.c.c.c.c.c.c.c.c.c.c.c.c.c.c.c.c.c.c.c.u./ y.c.c.c.c.c.c.c.c.c.c.c.c.c.c.c.c.c.c.c.c.c.c.",
"c.c.c.c.c.c.c.c.c.c.c.c.c.c.c.c.c.c.c.c.c.c.c.c.c.c.c.c.c.c.c.c.c.c.c.c.c.c.c.c.c.c.c.c.c.c.c.c.c.c.c.c.c.c.c.c.c.c.c.c.",
"c.c.c.c.c.c.c.c.c.c.c.c.c.c.c.c.c.c.c.c.c.c.c.c.c.c.c.c.c.c.c.c.c.c.c.c.c.c.c.c.c.c.c.c.c.c.c.c.c.c.c.c.c.c.c.c.c.c.c.c.",
"c.c.c.c.c.c.c.c.c.c.c.c.c.c.c.c.c.c.c.c.c.c.c.c.c.c.c.c.c.c.c.c.c.c.c.c.c.c.c.c.c.c.c.c.c.c.c.c.c.c.c.c.c.c.c.c.c.c.c.c."
};
