/* XPM */
static char *TechDraw_ProjRight[] = {
/* columns rows colors chars-per-pixel */
"60 60 131 2 ",
"   c #2E3436",
".  c #2F3638",
"X  c #303537",
"o  c #303638",
"O  c #353B3D",
"+  c #383D3F",
"@  c #393F41",
"#  c #3C4244",
"$  c #404546",
"%  c #404648",
"&  c #454A4B",
"*  c #494E4F",
"=  c #494E50",
"-  c #4C5253",
";  c #515656",
":  c #525857",
">  c #535759",
",  c #565C5B",
"<  c #595D5F",
"1  c #5D6263",
"2  c #626667",
"3  c #646867",
"4  c #626668",
"5  c #656A6B",
"6  c #696D6D",
"7  c #6B706E",
"8  c #6D7272",
"9  c #717675",
"0  c #747976",
"q  c #737678",
"w  c #767A79",
"e  c #797D7E",
"r  c #7D817E",
"t  c #0B9294",
"y  c #079B9D",
"u  c #089D9F",
"i  c #089FA1",
"p  c #09A2A4",
"a  c #0AA7A9",
"s  c #0BABAD",
"d  c #0CAFB1",
"f  c #0EB3B5",
"g  c #0FB7B9",
"h  c #0FB8BA",
"j  c #10BBBD",
"k  c #35BBBC",
"l  c #38BCBD",
"z  c #448B8A",
"x  c #4D8D8C",
"c  c #57918F",
"v  c #579391",
"b  c #589693",
"n  c #599996",
"m  c #529E9C",
"M  c #5A9D9A",
"N  c #7E8282",
"B  c #7C9E9B",
"V  c #53A19F",
"C  c #5AA19E",
"Z  c #65A29E",
"A  c #5BA4A1",
"S  c #55A9A7",
"D  c #56ACAA",
"F  c #57B0AE",
"G  c #58B1AF",
"H  c #59B5B3",
"J  c #5AB9B7",
"K  c #11BFC1",
"L  c #12C2C4",
"P  c #13C7C9",
"I  c #14CACC",
"U  c #16CFD1",
"Y  c #16D0D2",
"T  c #828585",
"R  c #868B87",
"E  c #838788",
"W  c #868989",
"Q  c #898D8C",
"!  c #8B8F90",
"~  c #8E9191",
"^  c #929695",
"/  c #959A95",
"(  c #939598",
")  c #96999A",
"_  c #9A9D9D",
"`  c #9CA09C",
"'  c #9C9EA1",
"]  c #9DA0A1",
"[  c #A2A6A3",
"{  c #A7ABA6",
"}  c #A9ADA7",
"|  c #A4A6A8",
" . c #A5A9A9",
".. c #AAADAE",
"X. c #ADB1AC",
"o. c #B2B5AF",
"O. c #ADAFB1",
"+. c #AFB7B1",
"@. c #B2B4B3",
"#. c #B4B9B3",
"$. c #BABDB6",
"%. c #B5B7B8",
"&. c #B7BAB9",
"*. c #BABCBC",
"=. c #97C0BE",
"-. c #BCC1BA",
";. c #C1C3BD",
":. c #BEC0C1",
">. c #BAE4E3",
",. c #C1C3C1",
"<. c #C6C9C5",
"1. c #CACDC6",
"2. c #C6C6C9",
"3. c #C7C9C9",
"4. c #CBCDCD",
"5. c #CED2CA",
"6. c #D3D7CF",
"7. c #CED0D0",
"8. c #D2D4D3",
"9. c #DBDCDC",
"0. c #DFE1DF",
"q. c #E0E1DE",
"w. c #C7E8E7",
"e. c #E5E5E5",
"r. c #E7E8E6",
"t. c #E8E9E7",
"y. c #EDEDED",
"u. c #F0F0EF",
"i. c #F4F4F4",
"p. c #F7F8F8",
"a. c #FFFFFF",
/* pixels */
"a.a.a.a.a.a.a.a.a.a.a.a.a.a.a.a.a.a.a.a.a.a.a.a.a.a.a.a.a.a.a.a.a.a.a.a.a.a.a.a.a.a.a.a.a.a.a.a.a.a.a.a.a.a.a.a.a.a.a.a.",
"a.a.a.a.a.a.a.a.a.a.a.a.a.a.a.a.a.a.a.a.a.a.a.a.a.a.a.a.a.a.a.a.a.a.a.a.a.a.a.a.a.a.a.a.a.a.a.a.a.a.a.a.a.a.a.a.a.a.a.a.",
"a.a.a.a.a.a.a.a.a.a.a.a.a.a.a.a.a.a.a.a.a.a.a.a.a.a.a.a.a.a.a.a.a.a.a.a.a.a.a.a.a.a.a.a.a.a.a.a.a.a.a.a.a.a.a.a.a.a.a.a.",
"a.a.a.a.a.a.a.a.a.a.a.a.a.a.a.a.a.a.a.a.a.a.a.a.a.a.a.a.a.a.a.a.a.a.a.a.a.a.a.a.a.a.a.a.a.a.a.a.a.a.a.a.a.a.a.a.a.a.a.a.",
"a.a.a.a.a.a.a.a.a.a.a.a.a.a.a.a.a.a.a.a.a.a.a.a.a.a.a.a.a.a.a.a.a.a.a.a.a.a.a.a.a.a.a.a.a.a.a.a.a.a.a.a.a.a.a.a.a.a.a.a.",
"a.a.a.a.a.a.a.a.a.a.a.a.a.a.a.a.a.a.a.a.a.a.*.Q *.a.a.a.a.a.a.a.a.a.a.a.a.a.a.a.a.a.a.a.a.a.a.a.a.a.a.a.a.a.a.a.a.a.a.a.",
"a.a.a.a.a.a.a.a.a.a.a.a.a.a.a.a.a.a.a.a.7.-     . o - ~ y.a.a.a.a.a.a.a.a.a.a.a.a.a.a.a.a.a.a.a.a.a.a.a.a.a.a.a.a.a.a.a.",
"a.a.a.a.a.a.a.a.a.a.a.a.a.a.a.a.a.a.7.8     < ..w o       # 8 4.a.a.a.a.a.a.a.a.a.a.a.a.a.a.a.a.a.a.a.a.a.a.a.a.a.a.a.a.",
"a.a.a.a.a.a.a.a.a.a.a.a.a.a.a.a.7.5   . - @.a.a.a.p.8./ &       O < | p.a.a.a.a.a.a.a.a.a.a.a.a.a.a.a.a.a.a.a.a.a.a.a.a.",
"a.a.a.a.a.a.a.a.a.a.a.a.a.a.7.8     - @.a.a.i.q.r.a.a.a.a.r.@.4     X X % e 9.a.a.a.a.a.a.a.a.a.a.a.a.a.a.a.a.a.a.a.a.a.",
"a.a.a.a.a.a.a.a.a.a.a.a.4.5     = O.a.a.y.) e $.2 # T 3.i.a.a.a.i.4.( $       O 5 %.a.a.a.a.a.a.a.a.a.a.a.a.a.a.a.a.a.a.",
"a.a.a.a.a.a.a.a.a.a.4.5     = O.p.a.u.) @ o 0 $.2         5 @.e.a.a.a.a.e.} ,       o ; ) y.a.a.a.a.a.a.a.a.a.a.a.a.a.a.",
"a.a.a.a.a.a.a.a.7.8     = ..p.a.u.) @ X o   0 $.4   T < o       * ( 8.p.a.a.a.i.3.T O     X # 9 4.a.a.a.a.a.a.a.a.a.a.a.",
"a.a.a.a.a.a.7.8     = O.a.a.i.) @   O E |   0 $.4   4.a.a.4.e %       o e -.y.a.a.a.p.9.` % X     o , ] i.a.a.a.a.a.a.a.",
"a.a.a.a.7.8     = ..p.a.y.) @   O T t.a.@.  0 $.2 X 4.a.a.a.a.a.y.( ; o       < | 9.a.a.a.a.y.&.8 o     o % r 9.a.a.a.a.",
"a.a.9.#     = ..a.a.u.) @   O ! y.a.a.a.@.  0 $.2   4.a.a.a.a.a.a.a.a.p.+.2 +   X   @ T 4.i.a.a.a.i.4./ # X     O 2.a.a.",
"a.a.@   < %.a.a.y.~ O   O Q y.a.a.a.a.a.@.  9 $.2   4.a.a.a.a.a.a.a.a.a.a.a.a.9.r %       o 8 &.t.a.a.a.p.,.E -   o a.a.",
"a.q.. 1 a.a.a.9.-   X   O 1  .a.a.a.a.a.+.  0 $.2   4.a.a.a.a.a.a.a.a.a.a.a.a.a.a.a.i.] , o     . & N *.i.a.a.a.1   8.a.",
"a.0.  2 u.a.a.a.a.t.&.5         * N 9.a.@.  0 $.2   4.a.a.a.a.a.a.a.a.a.a.a.a.a.a.a.a.a.a.a.:.#     o ^ y.a.a.y.<   4.a.",
"a.r.X , 6.] ) 8.p.a.a.a.i.8.~ +       @ ;   0 $.2 X 4.a.a.a.a.a.a.a.a.a.a.a.a.a.a.a.a.a.i.w .   o ~ y.a.a.>.=.$.;   7.a.",
"a.e.  , 6./       6 &.y.a.a.a.a.t.@.,       O 6 >   4.a.a.a.a.a.a.a.a.a.a.a.a.a.a.a.i.q .   o Q y.a.a.>.l Y A $.;   4.a.",
"a.r.  < 6./   # O       - _ 9.p.a.a.a.i.<.W O X     # q 8.a.a.a.a.a.a.a.a.a.a.a.i.e o   . Q y.a.a.>.l U Y Y A $.;   7.a.",
"a.e.  , 6./   ) a.4.9 #     o o N 2.u.a.a.a.p.9.[ &     . o > ] i.a.a.a.a.a.i.w o . o Q y.a.a.>.l Y U Y Y Y A $.;   7.a.",
"a.r.  , 6./   ) a.a.a.a.y.( ; o       1 ..e.a.a.a.a.u.,.9       o & e 9.i.e o   o Q y.a.a.>.l U Y Y Y Y Y Y A $.;   7.a.",
"a.e.  < 6./   ) a.a.a.a.a.a.a.p.O.4 O       @ ^ 8.p.a.a.a.i.8.^ +           X Q y.a.a.>.l Y Y Y Y Y Y U U U A $.;   7.a.",
"a.e.  , 6./   ) a.a.a.a.a.a.a.a.a.a.a.9.2   o X     6 &.y.a.a.a.a.r.@., X Q y.a.a.>.l Y Y Y Y Y U U I U I I A $.;   4.a.",
"a.e.  , 6./   ) a.a.a.a.a.a.a.a.a.a.a.a.+.  9 ^ &         - | 0.a.a.a.a.p.a.a.>.k Y U Y U Y U I U I I I P I C $.;   7.a.",
"a.r.  < 6./   ) a.a.a.a.a.a.a.a.a.a.a.a.O.  0 $.2   ' 8 #       + E 4.i.a.w.k Y Y U U U U I I I I P P P P P M $.;   7.a.",
"a.e.  , 6./   ) a.a.a.a.a.a.a.a.a.a.a.a.O.  0 $.2   4.a.a.y.( ;       Q ;.J Y I I U I I I I P P P P P L L L M $.;   5.a.",
"a.e.  , 6./   ) a.a.a.a.a.a.a.a.a.a.a.a.+.  0 $.2   4.a.a.a.a.a.a.e   Q $.J I I I I I I P I P P L L L L L K C $.;   7.a.",
"a.r.  , 6./   ) a.a.a.a.a.a.a.a.a.a.a.a.@.  0 $.2   4.a.a.a.a.a.a.|   Q $.H I I I P P P L L L L L L L K K K M $.;   7.a.",
"a.e.  , 6./   ) a.a.a.a.a.a.a.a.a.a.a.a.@.X 0 $.4   4.a.a.a.a.a.a.|   Q $.H P P P P L L L K L L K K K K h h M $.;   7.a.",
"a.e.  < 6./   ) a.a.a.a.a.a.a.a.a.a.a.a...  0 $.3   w r.a.a.a.a.a.|   Q $.G P P L L L K K K K K h K h h h h n $.;   5.a.",
"a.r.  , 6./   ) a.a.a.a.a.a.a.a.a.a.i.] O   w -.3 X     O 2 @.a.a.|   Q $.F L K K K K K K j j j h g h h h h n -.;   7.a.",
"a.e.  , 6./   ) a.a.a.a.a.a.a.a.i._ # . o 9 <.6.6.-.~ =       o > 6   Q $.F K K K K j j j j g j g g g g g f b $.;   7.a.",
"a.e.  < 6./   ) a.a.a.a.a.a.i.] # . o 8 -.6.6.<.6.6.6.6.<.{ 6 o       Q -.G j j j j j g g g g f g f f f f d n $.;   7.a.",
"a.e.  , 6./   ) a.a.a.a.i.] #   o 7 -.6.8.{ ;   o 7 } 5.6.6.6.6.$.5   Q $.D j j g j g g g f f f f f d f f d b $.;   7.a.",
"a.e.  , 6./   ) a.a.i._ #   o 7 -.6.6.{ ;     @   o     > ^ -.6.6.Q   Q $.D g g g f g f f f f f d f d s s s b $.;   7.a.",
"a.r.  , 6./   ) i.] #   o 7 -.8.6.} ;     , *.a.a.@.2 O       # N e   Q $.D f f f f f f f d d d s s s s s a b $.;   5.a.",
"a.e.  < 6./   5 #   o 7 -.6.6.} ;     > &.a.a.a.a.a.a.a.9.T & X       Q $.D f f f d d d s s s s s s s a a a c $.;   7.a.",
"a.e.. , 6./     o 7 -.6.6.{ ;     > *.a.a.a.a.a.a.a.a.a.a.a.a.u.` &   Q -.S d d d d s s s s s a s a a a p p v -.;   7.a.",
"a.e.  , 6./   - -.6.6.{ ;     < ,.a.a.a.a.a.a.a.a.a.a.a.a.a.a.a.a.[   Q $.S d d s s s s s a a a p p p p p p c $.;   7.a.",
"a.r.  , 6./   . - 7 -     < :.a.a.a.a.a.a.a.a.a.a.a.a.a.a.a.a.a.a.|   Q $.V s s s a a a a p p p p p p p u p c $.;   7.a.",
"a.9.  , 6.-.7 # X       # ) i.a.a.a.a.a.a.a.a.a.a.a.a.a.a.a.a.a.a.|   Q $.S a a a a a p p p p p p u u u y t B $.;   3.a.",
"a.r.  # <.6.6.6.o.T ;         % r 8.a.a.a.a.a.a.a.a.a.a.a.a.a.a.a.|   Q #.V a a p p p p p u u p u y y t z #.$.X.#   9.a.",
"a.a.%     , R $.6.6.6.<.` 7 #       O 1 O.p.a.a.a.a.a.a.a.a.a.a.a.|   Q -.V p p p p i i u u y y u t z +.-.o.r #   O a.a.",
"a.a.y.,         & w { 5.6.6.6.X.r *       o = Q r.a.a.a.a.a.a.a.a.|   Q $.V i i i i y y y y y t z o.$.#.r @     # e.a.a.",
"a.a.a.a.a.@.2 +       O 1 / -.6.6.6.-.^ 2 o       @ 4 @.a.a.a.a.a.|   Q -.V i i y y y y y t z +.$.o.r @     * 2.a.a.a.a.",
"a.a.a.a.a.a.a.a.9.T &       o - r X.6.6.6.5.[ 8 #       o - / i.a.|   Q $.m y y y t y t z +.$.o.r #     - 4.a.a.a.a.a.a.",
"a.a.a.a.a.a.a.a.a.a.a.i._ > o .     # 6 ` 1.6.6.6.$.R , o o   . % ;   Q $.m t y y t z X.$.+.r #     * 3.a.a.a.a.a.a.a.a.",
"a.a.a.a.a.a.a.a.a.a.a.a.a.a.a.*.6 #       o , R $.6.6.6.<.` 7 +       Q #.m y t z #.$.@.r #     - 4.a.a.a.a.a.a.a.a.a.a.",
"a.a.a.a.a.a.a.a.a.a.a.a.a.a.a.a.a.a.e.Q ; .       & w { 5.6.6.6.X.r * Q -.Z x +.$.o.0 @     * <.a.a.a.a.a.a.a.a.a.a.a.a.",
"a.a.a.a.a.a.a.a.a.a.a.a.a.a.a.a.a.a.a.a.a.p.%.2 O       # 5 / <.6.6.6.;.$.$.$.o.0 +     = 3.a.a.a.a.a.a.a.a.a.a.a.a.a.a.",
"a.a.a.a.a.a.a.a.a.a.a.a.a.a.a.a.a.a.a.a.a.a.a.a.a.7.e %       o : T #.5.$.#.0 +     - 4.a.a.a.a.a.a.a.a.a.a.a.a.a.a.a.a.",
"a.a.a.a.a.a.a.a.a.a.a.a.a.a.a.a.a.a.a.a.a.a.a.a.a.a.a.a.u._ > o .     % r # X   - 4.a.a.a.a.a.a.a.a.a.a.a.a.a.a.a.a.a.a.",
"a.a.a.a.a.a.a.a.a.a.a.a.a.a.a.a.a.a.a.a.a.a.a.a.a.a.a.a.a.a.a.a.*.7 O   X X # 5.a.a.a.a.a.a.a.a.a.a.a.a.a.a.a.a.a.a.a.a.",
"a.a.a.a.a.a.a.a.a.a.a.a.a.a.a.a.a.a.a.a.a.a.a.a.a.a.a.a.a.a.a.a.a.a.a.9.( 8.a.a.a.a.a.a.a.a.a.a.a.a.a.a.a.a.a.a.a.a.a.a.",
"a.a.a.a.a.a.a.a.a.a.a.a.a.a.a.a.a.a.a.a.a.a.a.a.a.a.a.a.a.a.a.a.a.a.a.a.a.a.a.a.a.a.a.a.a.a.a.a.a.a.a.a.a.a.a.a.a.a.a.a.",
"a.a.a.a.a.a.a.a.a.a.a.a.a.a.a.a.a.a.a.a.a.a.a.a.a.a.a.a.a.a.a.a.a.a.a.a.a.a.a.a.a.a.a.a.a.a.a.a.a.a.a.a.a.a.a.a.a.a.a.a.",
"a.a.a.a.a.a.a.a.a.a.a.a.a.a.a.a.a.a.a.a.a.a.a.a.a.a.a.a.a.a.a.a.a.a.a.a.a.a.a.a.a.a.a.a.a.a.a.a.a.a.a.a.a.a.a.a.a.a.a.a."
};
