/* XPM */
static char *TechDraw_ProjBottom[] = {
/* columns rows colors chars-per-pixel */
"60 60 128 2 ",
"   c #2E3436",
".  c #2E3639",
"X  c #2D3A3D",
"o  c #303537",
"O  c #313638",
"+  c #343A3C",
"@  c #383D3F",
"#  c #2E3F41",
"$  c #393F41",
"%  c #2D4445",
"&  c #2D4749",
"*  c #2C4B4D",
"=  c #3C4243",
"-  c #2D5254",
";  c #2F5658",
":  c #2B5B5D",
">  c #2A6D6F",
",  c #277373",
"<  c #2A7374",
"1  c #2F777A",
"2  c #2A7C7D",
"3  c #414647",
"4  c #404648",
"5  c #454A4C",
"6  c #494E4F",
"7  c #494E50",
"8  c #4C5253",
"9  c #515656",
"0  c #525957",
"q  c #535759",
"w  c #565C5C",
"e  c #595E5F",
"r  c #5D6363",
"t  c #626767",
"y  c #636866",
"u  c #626668",
"i  c #656A6B",
"p  c #696D6D",
"a  c #6B706E",
"s  c #6D7272",
"d  c #717675",
"f  c #747976",
"g  c #737678",
"h  c #767A79",
"j  c #797D7D",
"k  c #7D817E",
"l  c #268283",
"z  c #2D8B8C",
"x  c #268E90",
"c  c #288F93",
"v  c #2B9194",
"b  c #29979B",
"n  c #269A9C",
"m  c #239FA2",
"M  c #22A2A4",
"N  c #2EAAAC",
"B  c #31A3A6",
"V  c #32A6A9",
"C  c #30ABAC",
"Z  c #22B4B6",
"A  c #2BBABC",
"S  c #7E8383",
"D  c #1DCBCC",
"F  c #1ED4D6",
"G  c #25C3C4",
"H  c #30C1C5",
"J  c #22D5D7",
"K  c #2DD2D4",
"L  c #22D6D8",
"P  c #26D8DA",
"I  c #2CDBDD",
"U  c #32DDDF",
"Y  c #31DEE0",
"T  c #828585",
"R  c #858A85",
"E  c #838688",
"W  c #868989",
"Q  c #898D8C",
"!  c #8C908C",
"~  c #8B8F90",
"^  c #8E9191",
"/  c #929695",
"(  c #959A95",
")  c #939598",
"_  c #96999A",
"`  c #9A9D9C",
"'  c #9DA29C",
"]  c #9C9EA1",
"[  c #9DA0A1",
"{  c #A2A6A4",
"}  c #A7ABA6",
"|  c #A9ADA7",
" . c #A4A6A8",
".. c #A5A9A9",
"X. c #AAADAE",
"o. c #ADB1AC",
"O. c #B2B5AF",
"+. c #ADAFB1",
"@. c #B2B4B3",
"#. c #B5B8B3",
"$. c #BABDB6",
"%. c #B5B7B8",
"&. c #B7BAB9",
"*. c #BABDBB",
"=. c #BCC1BA",
"-. c #C1C5BE",
";. c #BEC0C1",
":. c #C1C4C1",
">. c #C6C9C5",
",. c #CACDC6",
"<. c #C6C6C9",
"1. c #C7C9C9",
"2. c #CBCDCD",
"3. c #CDD1C9",
"4. c #D3D7CF",
"5. c #CED0D0",
"6. c #D2D4D3",
"7. c #DBDCDC",
"8. c #DFE1DF",
"9. c #E0E1DE",
"0. c #E4E5E5",
"q. c #E7E8E6",
"w. c #E8E9E7",
"e. c #ECEDEC",
"r. c #F0F0EF",
"t. c #F4F5F4",
"y. c #F7F8F8",
"u. c #FFFFFF",
/* pixels */
"u.u.u.u.u.u.u.u.u.u.u.u.u.u.u.u.u.u.u.u.u.u.u.u.u.u.u.u.u.u.u.u.u.u.u.u.u.u.u.u.u.u.u.u.u.u.u.u.u.u.u.u.u.u.u.u.u.u.u.u.",
"u.u.u.u.u.u.u.u.u.u.u.u.u.u.u.u.u.u.u.u.u.u.u.u.u.u.u.u.u.u.u.u.u.u.u.u.u.u.u.u.u.u.u.u.u.u.u.u.u.u.u.u.u.u.u.u.u.u.u.u.",
"u.u.u.u.u.u.u.u.u.u.u.u.u.u.u.u.u.u.u.u.u.u.u.u.u.u.u.u.u.u.u.u.u.u.u.u.u.u.u.u.u.u.u.u.u.u.u.u.u.u.u.u.u.u.u.u.u.u.u.u.",
"u.u.u.u.u.u.u.u.u.u.u.u.u.u.u.u.u.u.u.u.u.u.u.u.u.u.u.u.u.u.u.u.u.u.u.u.u.u.u.u.u.u.u.u.u.u.u.u.u.u.u.u.u.u.u.u.u.u.u.u.",
"u.u.u.u.u.u.u.u.u.u.u.u.u.u.u.u.u.u.u.u.u.u.u.u.u.u.u.u.u.u.u.u.u.u.u.u.u.u.u.u.u.u.u.u.u.u.u.u.u.u.u.u.u.u.u.u.u.u.u.u.",
"u.u.u.u.u.u.u.u.u.u.u.u.u.u.u.u.u.u.u.u.u.u.*.Q *.u.u.u.u.u.u.u.u.u.u.u.u.u.u.u.u.u.u.u.u.u.u.u.u.u.u.u.u.u.u.u.u.u.u.u.",
"u.u.u.u.u.u.u.u.u.u.u.u.u.u.u.u.u.u.u.u.5.8       O 8 / e.u.u.u.u.u.u.u.u.u.u.u.u.u.u.u.u.u.u.u.u.u.u.u.u.u.u.u.u.u.u.u.",
"u.u.u.u.u.u.u.u.u.u.u.u.u.u.u.u.u.u.5.s     w +.h O       = s 2.u.u.u.u.u.u.u.u.u.u.u.u.u.u.u.u.u.u.u.u.u.u.u.u.u.u.u.u.",
"u.u.u.u.u.u.u.u.u.u.u.u.u.u.u.u.5.i     8 @.u.u.u.y.6.( 5       + e ..y.u.u.u.u.u.u.u.u.u.u.u.u.u.u.u.u.u.u.u.u.u.u.u.u.",
"u.u.u.u.u.u.u.u.u.u.u.u.u.u.5.s   . 8 @.u.u.t.9.q.u.u.u.u.q.@.u       o 4 j 7.u.u.u.u.u.u.u.u.u.u.u.u.u.u.u.u.u.u.u.u.u.",
"u.u.u.u.u.u.u.u.u.u.u.u.2.i     7 +.u.u.r._ j $.u = T 1.t.u.u.u.t.2./ 3       + i &.u.u.u.u.u.u.u.u.u.u.u.u.u.u.u.u.u.u.",
"u.u.u.u.u.u.u.u.u.u.2.i     7 +.y.u.r._ $   f $.t         i @.0.u.u.u.u.0.X.w       O q ) e.u.u.u.u.u.u.u.u.u.u.u.u.u.u.",
"u.u.u.u.u.u.u.u.5.s     7 X.y.u.r._ $   O   f $.u   T e O       6 ) 6.y.u.u.u.t.>.T +     o = d 2.u.u.u.u.u.u.u.u.u.u.u.",
"u.u.u.u.u.u.5.s     7 +.u.u.r._ $   + E  .  f $.u   2.u.u.2.j 4     o O h -.e.u.u.u.y.7.` 5       O w [ t.u.u.u.u.u.u.u.",
"u.u.u.u.5.s     7 X.y.u.e._ $   + T e.u.@.  f $.t   2.u.u.u.u.u.e.) 9 O       e  .7.u.u.u.u.e.*.s O     o 4 k 7.u.u.u.u.",
"u.u.7.=     7 X.u.u.r._ $   @ ~ e.u.u.u.@.o f $.t   2.u.u.u.u.u.u.u.u.y.@.u @   o   $ T 1.t.u.u.u.t.2.( = O     + <.u.u.",
"u.u.=   e %.u.u.e.^ @   @ ~ e.u.u.u.u.u.+.  f $.y   2.u.u.u.u.u.u.u.u.u.u.u.u.7.k 4       O s &.w.u.u.u.y.:.W 8   o u.u.",
"u.8.  r u.u.u.7.8       O r ..u.u.u.u.u.@.  f $.i   2.u.u.u.u.u.u.u.u.u.u.u.u.u.u.u.t.[ w O     O 5 S *.t.u.u.u.r   6.u.",
"u.8.  u r.u.u.u.u.w.&.i         6 S 7.u.@.  f $.u   2.u.u.u.u.u.u.u.u.u.u.u.u.u.u.u.u.u.u.u.;.=     O / e.u.u.e.e   2.u.",
"u.q.  e 4.' _ 6.y.u.u.u.t.6.^ @       $ 8   f $.y   2.u.u.u.u.u.u.u.u.u.u.u.u.u.u.u.u.u.t.h O . O ^ e.u.u.w.*.$.9   5.u.",
"u.0.  w 4.(       p *.e.u.u.u.u.q.@.w       @ p 9   2.u.u.u.u.u.u.u.u.u.u.u.u.u.u.u.t.g .   O Q e.u.u.w.Q   R $.9   2.u.",
"u.0.  w 4.(   = +       8 ` 7.y.u.u.u.t.<.W + o     = g 6.u.u.u.u.u.u.u.u.u.u.u.t.j O   O Q e.u.u.w.Q       R $.9   5.u.",
"u.q.  w 4.(   _ u.2.g = o   O O S <.r.u.u.u.y.7.{ 5       O w ] y.u.u.u.u.u.t.h O . O Q e.u.u.w.Q . . O =   R $.9   5.u.",
"u.q.  w 4.(   _ u.u.u.u.e.) 9 O       r | 0.u.u.u.u.t.;.f       O 5 j 7.t.j O   O Q e.u.u.w.Q     O k y.u   R $.9   5.u.",
"u.0.  w 4.( . _ u.u.u.u.u.u.u.y.+.u +       = / 6.y.u.u.u.t.6./ $           O Q e.u.u.w.Q     + E u.u.u.u   R $.9   5.u.",
"u.q.  w 4.(   _ u.u.u.u.u.u.u.u.u.u.u.7.r   o       p *.e.u.u.u.u.w.@.w O Q e.u.u.w.Q     O S y.u.u.u.u.u   R $.9   5.u.",
"u.0.  w 4.(   _ u.u.u.u.u.u.u.u.u.u.u.u.@.  d / 5         8 ..8.y.u.u.u.y.u.u.w.T     O S y.u.u.u.u.u.u.u   R $.9   5.u.",
"u.0.  w 4.(   _ u.u.u.u.u.u.u.u.u.u.u.u.+.  f $.u   ` s =       @ R 2.t.u.e.T     + T u.u.u.u.u.u.u.u.u.u   R $.9   5.u.",
"u.q.  w 4.(   _ u.u.u.u.u.u.u.u.u.u.u.u.@.  f $.u   2.u.u.e.) 9       Q -.'   O S y.u.u.u.u.u.u.u.u.u.u.u   R $.9   5.u.",
"u.q.  e 4.(   _ u.u.u.u.u.u.u.u.u.u.u.u.+.  f $.u   2.u.u.u.u.u.u.j   Q $.'   S u.u.u.u.u.u.u.u.u.u.u.u.u   R $.9   3.u.",
"u.0.  w 4.(   _ u.u.u.u.u.u.u.u.u.u.u.u.@.  f $.t   2.u.u.u.u.u.u. .  Q $.'   S u.u.u.u.u.u.u.u.u.u.u.u.u   R $.9   5.u.",
"u.0.  w 4.(   _ u.u.u.u.u.u.u.u.u.u.u.u.@.o f $.t   2.u.u.u.u.u.u. .  Q $.'   S u.u.u.u.u.u.u.u.u.u.u.u.u   R $.9   5.u.",
"u.0.  w 4.(   _ u.u.u.u.u.u.u.u.u.u.u.u.X.  f $.y   h q.u.u.u.u.u. .  Q $.'   S u.u.u.u.u.u.u.u.u.u.u.u.u   R $.9   2.u.",
"u.q.  w 4.(   _ u.u.u.u.u.u.u.u.u.u.t.[ @   f =.i o     @ y @.u.u. .  Q $.'   k u.u.u.u.u.u.u.u.u.u.u.u.u   R $.9   5.u.",
"u.0.  w 4.(   _ u.u.u.u.u.u.u.u.t.` =   O d >.4.4.=.! 8       O 9 p   Q $.'   T u.u.u.u.u.u.u.u.u.u.u.u.u   R $.9   5.u.",
"u.q.  w 4.(   _ u.u.u.u.u.u.t.[ =   O s =.4.4.>.4.4.4.4.>.} p O       Q =.'   T u.u.u.u.u.u.u.u.u.u.u.u.u   R $.9   5.u.",
"u.q.  w 4.(   _ u.u.u.u.t.[ = . o a =.4.4.| 9 o O s | 3.4.4.4.4.=.y   Q $.'   =  .y.u.u.u.u.u.u.u.u.u.u.y   R $.9   5.u.",
"u.0.  w 4.(   _ u.u.t.` =   + p =.4.4.} 9   o %       o q / =.4.4.Q   Q $.'     o . 7 Q q.u.u.u.u.u.u.u.y   R $.9   5.u.",
"u.q.  w 4.( . _ t.[ =   O a *.4.4.| 9     - V Y U B : X       = k j   Q $.'   y k @       $ u @.u.u.u.u.y   R $.9   3.u.",
"u.0.  w 4.(   i =   O a =.4.4.| 9     ; V U Y Y Y U Y Y H 1 &   o     Q $.'   a 4.4.-._ 8       O 9 Q w.u   R $.9   5.u.",
"u.0.o w 4.(     O a =.4.4.} 9   o - V U Y Y Y Y Y Y I I I I I K z &   Q =.'   0 *.4.4.4.4.3.| a O o o   o o R $.9   5.u.",
"u.0.  w 4.(   8 =.4.4...9     ; C Y U I Y I I I I I I I I I I I I v   Q $.'       O a | 3.4.4.4.3.=.! 3     R $.9   5.u.",
"u.0.  w 4.(   O 9 a 8     ; N I I I I I I I I I I I I I I I I I I v   ! $.'   - *         w ( -.4.4.4.#.9   R $.9   5.u.",
"u.7.  w 4.=.s =         # z K I I I I I I I I I P I P I I P P P P v   R $.'   < P J b : X     O 3 f r o   = ' $.9   1.u.",
"u.q.  4 >.4.4.3.O.S 9 O       % < A P I I P I P P P P I P P P P L c   ! $.'   , L L L F L Z > .       = T #.$.o.=   7.u.",
"u.u.4   O 0 R =.4.4.4.>.' a @       X : b P L P P P P L L L L L L v   Q $.'   , J F F F F M &     = h #.$.O.k =   + u.u.",
"u.u.e.w         5 f | 3.4.4.4.o.k 6         * 2 G L L L L L L L F x   Q $.'   , F F F m %     = h #.$.O.k =     = 0.u.u.",
"u.u.u.u.u.@.y @ o o   + r / -.4.4.4.=./ y O       X : n L F F F F x   Q $.'   , F M *     = f #.$.#.k $     6 <.u.u.u.u.",
"u.u.u.u.u.u.u.u.7.T 5       O 9 j o.4.4.4.3.{ s =       . * l D F x   Q =.'   : &     $ k #.$.O.k =     8 2.u.u.u.u.u.u.",
"u.u.u.u.u.u.u.u.u.u.u.t.` q O .     = p ' ,.4.4.4.=.R w .       # -   Q #.'     o $ h #.$.O.k $   o 7 >.u.u.u.u.u.u.u.u.",
"u.u.u.u.u.u.u.u.u.u.u.u.u.u.u.*.p =       O w R $.4.4.6.>.' a $       Q =.'   @ j #.$.@.k $     8 2.u.u.u.u.u.u.u.u.u.u.",
"u.u.u.u.u.u.u.u.u.u.u.u.u.u.u.u.u.u.0.Q 8 O       5 f | 3.4.4.4.o.k 5 Q =.{ k #.$.O.f $     6 ,.u.u.u.u.u.u.u.u.u.u.u.u.",
"u.u.u.u.u.u.u.u.u.u.u.u.u.u.u.u.u.u.u.u.u.y.%.u @     . @ p ( >.4.4.4.-.=.=.#.O.f @     7 1.u.u.u.u.u.u.u.u.u.u.u.u.u.u.",
"u.u.u.u.u.u.u.u.u.u.u.u.u.u.u.u.u.u.u.u.u.u.u.u.u.6.h =       O 0 R #.3.#.#.k @     8 2.u.u.u.u.u.u.u.u.u.u.u.u.u.u.u.u.",
"u.u.u.u.u.u.u.u.u.u.u.u.u.u.u.u.u.u.u.u.u.u.u.u.u.u.u.u.r.` q O o   o = k =     8 2.u.u.u.u.u.u.u.u.u.u.u.u.u.u.u.u.u.u.",
"u.u.u.u.u.u.u.u.u.u.u.u.u.u.u.u.u.u.u.u.u.u.u.u.u.u.u.u.u.u.u.u.=.p + o o   = ,.u.u.u.u.u.u.u.u.u.u.u.u.u.u.u.u.u.u.u.u.",
"u.u.u.u.u.u.u.u.u.u.u.u.u.u.u.u.u.u.u.u.u.u.u.u.u.u.u.u.u.u.u.u.u.u.u.7./ 6.u.u.u.u.u.u.u.u.u.u.u.u.u.u.u.u.u.u.u.u.u.u.",
"u.u.u.u.u.u.u.u.u.u.u.u.u.u.u.u.u.u.u.u.u.u.u.u.u.u.u.u.u.u.u.u.u.u.u.u.u.u.u.u.u.u.u.u.u.u.u.u.u.u.u.u.u.u.u.u.u.u.u.u.",
"u.u.u.u.u.u.u.u.u.u.u.u.u.u.u.u.u.u.u.u.u.u.u.u.u.u.u.u.u.u.u.u.u.u.u.u.u.u.u.u.u.u.u.u.u.u.u.u.u.u.u.u.u.u.u.u.u.u.u.u.",
"u.u.u.u.u.u.u.u.u.u.u.u.u.u.u.u.u.u.u.u.u.u.u.u.u.u.u.u.u.u.u.u.u.u.u.u.u.u.u.u.u.u.u.u.u.u.u.u.u.u.u.u.u.u.u.u.u.u.u.u."
};
