/* XPM */
static char *TechDraw_ProjTop[] = {
/* columns rows colors chars-per-pixel */
"60 60 137 2 ",
"   c #2E3436",
".  c #2F3638",
"X  c #303537",
"o  c #313739",
"O  c #353B3D",
"+  c #383D3F",
"@  c #383E40",
"#  c #3C4243",
"$  c #414647",
"%  c #404648",
"&  c #444A4B",
"*  c #494E4F",
"=  c #494E50",
"-  c #4C5253",
";  c #515656",
":  c #525957",
">  c #535759",
",  c #565C5B",
"<  c #595E5E",
"1  c #5E6363",
"2  c #626666",
"3  c #636866",
"4  c #626668",
"5  c #656A6B",
"6  c #696D6E",
"7  c #6B706E",
"8  c #6B6F71",
"9  c #6D7272",
"0  c #717675",
"q  c #747976",
"w  c #767B79",
"e  c #797D7C",
"r  c #7D817E",
"t  c #7F8383",
"y  c #18CFD1",
"u  c #17D1D3",
"i  c #1CD3D5",
"p  c #37CECF",
"a  c #25CFD0",
"s  c #21D5D7",
"d  c #22D7D9",
"f  c #26D8DA",
"g  c #2BDBDD",
"h  c #32D5D7",
"j  c #3AD7D9",
"k  c #3ED9DB",
"l  c #2FDEE0",
"z  c #31DEE0",
"x  c #34E0E2",
"c  c #46C8CA",
"v  c #52CDCF",
"b  c #40D6D7",
"n  c #4AD0D2",
"m  c #57D5D6",
"M  c #64CECD",
"N  c #69C9CA",
"B  c #77C0C2",
"V  c #70CDCF",
"C  c #7FCECE",
"Z  c #64D0D1",
"A  c #818585",
"S  c #858A85",
"D  c #838688",
"F  c #858888",
"G  c #898D8C",
"H  c #8C908C",
"J  c #8F9392",
"K  c #939695",
"L  c #959A95",
"P  c #939598",
"I  c #96999A",
"U  c #9A9D9C",
"Y  c #9DA29C",
"T  c #9C9EA1",
"R  c #9DA0A1",
"E  c #A2A6A3",
"W  c #A7ABA6",
"Q  c #A9ADA7",
"!  c #A4A6A8",
"~  c #ABAEAE",
"^  c #ADB1AC",
"/  c #B2B5AF",
"(  c #ADAFB1",
")  c #AFB1B2",
"_  c #B2B5B4",
"`  c #B5B8B2",
"'  c #BABDB6",
"]  c #B5B7B8",
"[  c #B6B9B9",
"{  c #BABCBC",
"}  c #BCC1BA",
"|  c #C1C5BE",
" . c #83C4C3",
".. c #8AC5C5",
"X. c #81C9C9",
"o. c #8BCBCB",
"O. c #98C5C6",
"+. c #98C7C9",
"@. c #9ECDCC",
"#. c #BFC1C1",
"$. c #B8CDCE",
"%. c #AED1CF",
"&. c #A1D5D5",
"*. c #AFD8D8",
"=. c #B3D3D2",
"-. c #BED8D6",
";. c #B7D9D9",
":. c #BADBDA",
">. c #C1C4C1",
",. c #C6CAC4",
"<. c #CACDC6",
"1. c #C6C6C9",
"2. c #C7C9C9",
"3. c #CBCDCD",
"4. c #CDD1C9",
"5. c #D3D7CF",
"6. c #CED0D0",
"7. c #C6DAD8",
"8. c #D3D4D4",
"9. c #D2DFDD",
"0. c #DADBDB",
"q. c #DFE1DF",
"w. c #C8E0E0",
"e. c #C3E9E7",
"r. c #D5E5E5",
"t. c #DDE3E2",
"y. c #DDEBEA",
"u. c #E5E5E6",
"i. c #E8E8E7",
"p. c #E6EEEC",
"a. c #EBEDEC",
"s. c #EFF0EF",
"d. c #F0F0EF",
"f. c #EFF0F0",
"g. c #F4F5F4",
"h. c #F7F8F8",
"j. c #FFFFFF",
/* pixels */
"j.j.j.j.j.j.j.j.j.j.j.j.j.j.j.j.j.j.j.j.j.j.j.j.j.j.j.j.j.j.j.j.j.j.j.j.j.j.j.j.j.j.j.j.j.j.j.j.j.j.j.j.j.j.j.j.j.j.j.j.",
"j.j.j.j.j.j.j.j.j.j.j.j.j.j.j.j.j.j.j.j.j.j.j.j.j.j.j.j.j.j.j.j.j.j.j.j.j.j.j.j.j.j.j.j.j.j.j.j.j.j.j.j.j.j.j.j.j.j.j.j.",
"j.j.j.j.j.j.j.j.j.j.j.j.j.j.j.j.j.j.j.j.j.j.j.j.j.j.j.j.j.j.j.j.j.j.j.j.j.j.j.j.j.j.j.j.j.j.j.j.j.j.j.j.j.j.j.j.j.j.j.j.",
"j.j.j.j.j.j.j.j.j.j.j.j.j.j.j.j.j.j.j.j.j.j.j.j.j.j.j.j.j.j.j.j.j.j.j.j.j.j.j.j.j.j.j.j.j.j.j.j.j.j.j.j.j.j.j.j.j.j.j.j.",
"j.j.j.j.j.j.j.j.j.j.j.j.j.j.j.j.j.j.j.j.j.j.j.j.j.j.j.j.j.j.j.j.j.j.j.j.j.j.j.j.j.j.j.j.j.j.j.j.j.j.j.j.j.j.j.j.j.j.j.j.",
"j.j.j.j.j.j.j.j.j.j.j.j.j.j.j.j.j.j.j.j.j.j.{ G { j.j.j.j.j.j.j.j.j.j.j.j.j.j.j.j.j.j.j.j.j.j.j.j.j.j.j.j.j.j.j.j.j.j.j.",
"j.j.j.j.j.j.j.j.j.j.j.j.j.j.j.j.j.j.j.j.6.-     . X - J a.j.j.j.j.j.j.j.j.j.j.j.j.j.j.j.j.j.j.j.j.j.j.j.j.j.j.j.j.j.j.j.",
"j.j.j.j.j.j.j.j.j.j.j.j.j.j.j.j.j.j.6.9     < ~ e X     X # 9 3.j.j.j.j.j.j.j.j.j.j.j.j.j.j.j.j.j.j.j.j.j.j.j.j.j.j.j.j.",
"j.j.j.j.j.j.j.j.j.j.j.j.j.j.j.j.3.5     - ] j.j.j.h.8.I &       o 1 ! h.j.j.j.j.j.j.j.j.j.j.j.j.j.j.j.j.j.j.j.j.j.j.j.j.",
"j.j.j.j.j.j.j.j.j.j.j.j.j.j.6.8     - ] j.j.g.e.y.j.j.j.j.u._ 5       X % e 0.j.j.j.j.j.j.j.j.j.j.j.j.j.j.j.j.j.j.j.j.j.",
"j.j.j.j.j.j.j.j.j.j.j.j.3.5     = ~ j.j.f.+.b x x k V :.g.j.j.j.g.3.L $       + 5 [ j.j.j.j.j.j.j.j.j.j.j.j.j.j.j.j.j.j.",
"j.j.j.j.j.j.j.j.j.j.3.5     * ~ h.j.f.O.k x x x x x x x x m &.y.j.j.j.j.u.~ ;       X ; I a.j.j.j.j.j.j.j.j.j.j.j.j.j.j.",
"j.j.j.j.j.j.j.j.6.9     = ~ j.j.f.+.k z x x x x z x x x l x g x b C w.h.j.j.j.g.,.D O       # 9 3.j.j.j.j.j.j.j.j.j.j.j.",
"j.j.j.j.j.j.6.8     = ~ h.j.f.O.k x x z x z g x g x g x l g z g z g l g Z *.p.j.j.j.h.0.U & .     X , R h.j.j.j.j.j.j.j.",
"j.j.j.j.6.9     = ~ h.j.f.O.k z z z z z x x x g g x x g g g g g g g g g g g g n o.r.j.j.j.j.a.' 9         % e 0.j.j.j.j.",
"j.j.0.#     = ( j.j.g.O.k z z l z g z g g z g g g g g g g g g g g g f f g f f g g d h N ;.h.j.j.j.h.3.L #   .   O 1.j.j.",
"j.j.#   < ] j.j.a...j l g x g g g g g z g g g g g g g g f g g f g f f f f f f f f f f d f f v &.p.j.j.j.h.>.S -   X j.j.",
"j.q.  1 j.j.j.t.n g g g g g g g g g g g g g f g f f f g f f f f f f f f f f f d f d d d d d d s i p B $.g.j.j.j.1   8.j.",
"j.q.  3 d.j.j.j.j.a.=.M g g g g g f g f g f f f f f f f f f f f f d d d d d d d d d d d d i s d d i s ..f.j.j.a.<   3.j.",
"j.u.  , 5.R K 8.h.j.j.j.g.q.o.h f g f f f f f f f f f d d d d d d d d d d d i d i i s i s i i i i ..a.j.j.i.' ' ;   6.j.",
"j.u.  < 5.L     X 6 { a.j.j.j.h.a.%.v d d d d d d d d d d d d s d s i d s i i s i i i i i i i  .a.j.j.u.H   F ' ;   3.j.",
"j.u.  , 5.L   $ o X     = U 0.j.j.j.j.g.7.X.d d d s s d s s i i i i i i i i i i i i i u i  .a.j.j.a.G       S ' ;   6.j.",
"j.u.  < 5.L   I j.3.0 #     X o t ,.f.j.j.j.h.t.@.p i i i i i i i i i i i i u i i u u  .a.j.j.i.G     o #   F ' ;   6.j.",
"j.u.  , 5.L   I j.j.j.j.a.I ; o       1 ~ u.j.j.j.j.f.-.N i i i u i u i u u u u i  .s.j.j.a.G   . X t h.4   S ' ;   6.j.",
"j.u.  , 5.L   I j.j.j.j.j.j.j.h.( 1 O       # K 8.h.j.j.j.h.9.o.a u u u y u y  .a.j.j.a.G X X o D j.j.j.2   F ' ;   4.j.",
"j.u.  < 5.L   I j.j.j.j.j.j.j.j.j.j.j.0.1   X       6 { a.j.j.j.j.p.%.c y  .a.j.j.u.G     o t h.j.j.j.j.2   F ' ;   6.j.",
"j.u.  , 5.L   I j.j.j.j.j.j.j.j.j.j.j.j._   0 K &         - ! q.h.j.j.j.h.j.j.i.D     X t h.j.j.j.j.j.j.4   F ' ;   6.j.",
"j.u.  < 5.L   I j.j.j.j.j.j.j.j.j.j.j.j._   q ' 3   T 9 #       + F 3.h.j.a.D     o D j.j.j.j.j.j.j.j.j.4   S ' ;   6.j.",
"j.u.  < 5.L   I j.j.j.j.j.j.j.j.j.j.j.j._   0 ' 4   3.j.j.a.L ; X X . G | Y . X t h.j.j.j.j.j.j.j.j.j.j.4   S ' ;   6.j.",
"j.u.  , 5.L   I j.j.j.j.j.j.j.j.j.j.j.j.(   q ' 4   3.j.j.j.j.j.h.e   G ' Y   t j.j.j.j.j.j.j.j.j.j.j.j.4   S ' ;   6.j.",
"j.u.  , 5.L   I j.j.j.j.j.j.j.j.j.j.j.j._   q ' 2   3.j.j.j.j.j.j.!   G ' Y   t j.j.j.j.j.j.j.j.j.j.j.j.4   S ' ;   6.j.",
"j.u.  < 5.L   I j.j.j.j.j.j.j.j.j.j.j.j._ X q ' 2   3.j.j.j.j.j.j.!   G ' Y   t j.j.j.j.j.j.j.j.j.j.j.j.4   S ' ;   6.j.",
"j.u.  < 5.L   I j.j.j.j.j.j.j.j.j.j.j.j.Q   q ' 3   w u.j.j.j.j.j.!   S ' Y   t j.j.j.j.j.j.j.j.j.j.j.j.2   F ' ;   4.j.",
"j.u.  , 5.L   I j.j.j.j.j.j.j.j.j.j.h.T @   w } 5       + 4 ] j.j.!   G ' Y   t j.j.j.j.j.j.j.j.j.j.j.j.2   F ' ;   6.j.",
"j.u.  , 5.L   I j.j.j.j.j.j.j.j.g.U # o . 9 <.5.5.} J =       o > 6   G ' Y   A j.j.j.j.j.j.j.j.j.j.j.j.2   S ' ;   6.j.",
"j.u.  < 5.L   I j.j.j.j.j.j.h.R # . o 9 } 8.5.,.5.5.5.5.,.W 7 o       G } Y   A j.j.j.j.j.j.j.j.j.j.j.j.2 . S ' ;   6.j.",
"j.u.  < 5.L   I j.j.j.j.h.T # X o 7 } 5.5.W ;   o 7 Q <.5.5.5.4.' 5   S ' Y   # ! h.j.j.j.j.j.j.j.j.j.j.2   S ' ;   4.j.",
"j.u.  , 5.L   I j.j.g.U @   X 7 } 5.4.Q >     @ o X     > K } 5.5.H   G ' Y       . = H u.j.j.j.j.j.j.j.2   S ' ;   6.j.",
"j.u.  , 5.L   I h.U #   o 7 } 8.5.W >     > { j.h.] 4 +       # t e   G ' Y X 3 t +       + 2 ] j.j.j.j.4   S ' ;   6.j.",
"j.u.  < 5.L   5 #   o 7 } 5.5.W :     > { j.j.j.j.j.j.j.q.D &         G ' Y   7 5.5.| I -       X ; G a.4   S ' ;   6.j.",
"j.u.  , 5.L     X 9 } 5.5.W ;     > { j.j.j.j.j.j.j.j.j.j.j.j.g.U *   G ' Y   > ' 5.5.5.5.<.Q 9 o X X   o   S ' ;   6.j.",
"j.u.  , 5.L   - } 5.5.W :     < #.j.j.j.j.j.j.j.j.j.j.j.j.j.j.j.j.!   G } Y       X 9 Q 4.5.5.5.4.} H $     S ' ;   6.j.",
"j.u.  , 5.L     - 7 -     < #.j.j.j.j.j.j.j.j.j.j.j.j.j.j.j.j.j.j.!   G ' Y . > - o       < L | 5.5.5.` ;   S ' ;   6.j.",
"j.0.  , 5.} 7 #         # I g.j.j.j.j.j.j.j.j.j.j.j.j.j.j.j.j.j.j.!   S ' Y . t j.h.) 4 +       # q 2 X   # Y ' ;   2.j.",
"j.u.  % ,.5.5.5./ A :         & r 8.j.j.j.j.j.j.j.j.j.j.j.j.j.j.j.!   G ' Y   t j.j.j.j.j.8.e +       # A ` ' ^ #   0.j.",
"j.j.&   . , S } 5.5.5.,.Y 6 +       + 1 ( h.j.j.j.j.j.j.j.j.j.j.j.!   G ' Y   t j.j.j.j.j.{ &   X # w ` ' / r #   O j.j.",
"j.j.a.>         & w W 4.5.5.5.^ r *       X = G u.j.j.j.j.j.j.j.j.!   G ' Y   t j.j.j.[ &     @ w ` ' / r #     # u.j.j.",
"j.j.j.j.h.] 4 +       O 3 K } 5.5.5.} K 1 O       + 2 ] j.j.j.j.j.!   G ' Y   t j.#.*     # e ` ' ` r @     * 1.j.j.j.j.",
"j.j.j.j.j.j.j.j.0.D &       X ; r ^ 5.8.5.4.E 9 #       o - L g.j.!   G ' Y   1 & X   # w ` ' / r #     - 3.j.j.j.j.j.j.",
"j.j.j.j.j.j.j.j.j.j.j.g.U > X .     # 7 Y <.5.5.5.' S < o .     # >   G ' Y       # w ` ' ` r @ X X = ,.j.j.j.j.j.j.j.j.",
"j.j.j.j.j.j.j.j.j.j.j.j.j.j.j.{ 6 #       o , S ' 5.5.8.,.Y 7 @       G } Y   @ e ` ' _ r #     - 3.j.j.j.j.j.j.j.j.j.j.",
"j.j.j.j.j.j.j.j.j.j.j.j.j.j.j.j.j.j.t.G ; o       & w W 4.5.5.5.^ r = G ' E t ` ' / q @     * ,.j.j.j.j.j.j.j.j.j.j.j.j.",
"j.j.j.j.j.j.j.j.j.j.j.j.j.j.j.j.j.j.j.j.j.h.] 4 +     . # 5 L ,.5.5.5.| ' } ` / q +     = 2.j.j.j.j.j.j.j.j.j.j.j.j.j.j.",
"j.j.j.j.j.j.j.j.j.j.j.j.j.j.j.j.j.j.j.j.j.j.j.j.j.8.w #       X : S ` <.' ` w +     - 3.j.j.j.j.j.j.j.j.j.j.j.j.j.j.j.j.",
"j.j.j.j.j.j.j.j.j.j.j.j.j.j.j.j.j.j.j.j.j.j.j.j.j.j.j.j.f.U > o       $ r # X   - 3.j.j.j.j.j.j.j.j.j.j.j.j.j.j.j.j.j.j.",
"j.j.j.j.j.j.j.j.j.j.j.j.j.j.j.j.j.j.j.j.j.j.j.j.j.j.j.j.j.j.j.j.} 6 O   X X $ 4.j.j.j.j.j.j.j.j.j.j.j.j.j.j.j.j.j.j.j.j.",
"j.j.j.j.j.j.j.j.j.j.j.j.j.j.j.j.j.j.j.j.j.j.j.j.j.j.j.j.j.j.j.j.j.j.j.0.P 8.j.j.j.j.j.j.j.j.j.j.j.j.j.j.j.j.j.j.j.j.j.j.",
"j.j.j.j.j.j.j.j.j.j.j.j.j.j.j.j.j.j.j.j.j.j.j.j.j.j.j.j.j.j.j.j.j.j.j.j.j.j.j.j.j.j.j.j.j.j.j.j.j.j.j.j.j.j.j.j.j.j.j.j.",
"j.j.j.j.j.j.j.j.j.j.j.j.j.j.j.j.j.j.j.j.j.j.j.j.j.j.j.j.j.j.j.j.j.j.j.j.j.j.j.j.j.j.j.j.j.j.j.j.j.j.j.j.j.j.j.j.j.j.j.j.",
"j.j.j.j.j.j.j.j.j.j.j.j.j.j.j.j.j.j.j.j.j.j.j.j.j.j.j.j.j.j.j.j.j.j.j.j.j.j.j.j.j.j.j.j.j.j.j.j.j.j.j.j.j.j.j.j.j.j.j.j."
};
