/* XPM */
static char *TechDraw_ProjRear[] = {
/* columns rows colors chars-per-pixel */
"60 60 137 2 ",
"   c #2E3436",
".  c #2E3639",
"X  c #2E3A3B",
"o  c #303537",
"O  c #313738",
"+  c #353B3D",
"@  c #383D3F",
"#  c #2E3E40",
"$  c #393F41",
"%  c #2D4344",
"&  c #2E4748",
"*  c #2B4B4D",
"=  c #3C4243",
"-  c #2E4F51",
";  c #2D5254",
":  c #295C5E",
">  c #305759",
",  c #2B6466",
"<  c #2C6C6E",
"1  c #2C6E71",
"2  c #277373",
"3  c #2B7174",
"4  c #2A7678",
"5  c #24797A",
"6  c #30797B",
"7  c #414647",
"8  c #404648",
"9  c #454A4C",
"0  c #494E4F",
"q  c #494E50",
"w  c #4C5253",
"e  c #515656",
"r  c #525957",
"t  c #565C5B",
"y  c #595D5E",
"u  c #5E6363",
"i  c #626667",
"p  c #636866",
"a  c #626668",
"s  c #656A6B",
"d  c #696D6D",
"f  c #6B706E",
"g  c #6D7272",
"h  c #717675",
"j  c #747976",
"k  c #767B78",
"l  c #787D7C",
"z  c #7D817E",
"x  c #1F979A",
"c  c #298485",
"v  c #218D8E",
"b  c #2B8C8F",
"n  c #318889",
"m  c #268E90",
"M  c #2B8E91",
"N  c #239A9D",
"B  c #319E9F",
"V  c #19BBBF",
"C  c #2CA7AA",
"Z  c #26AEB1",
"A  c #2FB3B5",
"S  c #2CB6B8",
"D  c #2CBDBF",
"F  c #32B4B7",
"G  c #7F8383",
"H  c #18C1C4",
"J  c #1ACDCF",
"K  c #16CED0",
"L  c #16D0D2",
"P  c #1CD3D5",
"I  c #22C0C3",
"U  c #24C9CB",
"Y  c #21D4D6",
"T  c #2AD2D4",
"R  c #22D6D8",
"E  c #24D8DA",
"W  c #2CDCDE",
"Q  c #33D0D2",
"!  c #31DBDD",
"~  c #2FDEE0",
"^  c #31DEE0",
"/  c #34E0E2",
"(  c #828585",
")  c #858A85",
"_  c #838788",
"`  c #868989",
"'  c #898D8C",
"]  c #8C908C",
"[  c #8B8F90",
"{  c #8E9191",
"}  c #929695",
"|  c #959A95",
" . c #939598",
".. c #96999A",
"X. c #9A9D9C",
"o. c #9DA29C",
"O. c #9DA0A1",
"+. c #A2A6A3",
"@. c #A7ABA6",
"#. c #A9ADA7",
"$. c #A4A6A8",
"%. c #A5A9A9",
"&. c #AAADAE",
"*. c #ADB1AC",
"=. c #B2B5AF",
"-. c #ADAFB1",
";. c #AFB1B2",
":. c #B2B4B3",
">. c #B5B8B3",
",. c #BABDB6",
"<. c #B5B7B8",
"1. c #B7BAB9",
"2. c #BABCBC",
"3. c #BCC1BA",
"4. c #C1C5BE",
"5. c #BFC1C1",
"6. c #C1C3C1",
"7. c #C6C9C5",
"8. c #CACDC6",
"9. c #C6C6C9",
"0. c #C7C9C9",
"q. c #CBCDCD",
"w. c #CDD1C9",
"e. c #D3D7CF",
"r. c #CED0D0",
"t. c #D3D4D3",
"y. c #DBDCDC",
"u. c #DFE1DF",
"i. c #E0E1DE",
"p. c #E5E5E5",
"a. c #E7E8E6",
"s. c #E8E9E7",
"d. c #ECEDEC",
"f. c #F0F0EF",
"g. c #F4F4F4",
"h. c #F7F8F8",
"j. c #FFFFFF",
/* pixels */
"j.j.j.j.j.j.j.j.j.j.j.j.j.j.j.j.j.j.j.j.j.j.j.j.j.j.j.j.j.j.j.j.j.j.j.j.j.j.j.j.j.j.j.j.j.j.j.j.j.j.j.j.j.j.j.j.j.j.j.j.",
"j.j.j.j.j.j.j.j.j.j.j.j.j.j.j.j.j.j.j.j.j.j.j.j.j.j.j.j.j.j.j.j.j.j.j.j.j.j.j.j.j.j.j.j.j.j.j.j.j.j.j.j.j.j.j.j.j.j.j.j.",
"j.j.j.j.j.j.j.j.j.j.j.j.j.j.j.j.j.j.j.j.j.j.j.j.j.j.j.j.j.j.j.j.j.j.j.j.j.j.j.j.j.j.j.j.j.j.j.j.j.j.j.j.j.j.j.j.j.j.j.j.",
"j.j.j.j.j.j.j.j.j.j.j.j.j.j.j.j.j.j.j.j.j.j.j.j.j.j.j.j.j.j.j.j.j.j.j.j.j.j.j.j.j.j.j.j.j.j.j.j.j.j.j.j.j.j.j.j.j.j.j.j.",
"j.j.j.j.j.j.j.j.j.j.j.j.j.j.j.j.j.j.j.j.j.j.j.j.j.j.j.j.j.j.j.j.j.j.j.j.j.j.j.j.j.j.j.j.j.j.j.j.j.j.j.j.j.j.j.j.j.j.j.j.",
"j.j.j.j.j.j.j.j.j.j.j.j.j.j.j.j.j.j.j.j.j.j.2.' 2.j.j.j.j.j.j.j.j.j.j.j.j.j.j.j.j.j.j.j.j.j.j.j.j.j.j.j.j.j.j.j.j.j.j.j.",
"j.j.j.j.j.j.j.j.j.j.j.j.j.j.j.j.j.j.j.j.r.w       O w } d.j.j.j.j.j.j.j.j.j.j.j.j.j.j.j.j.j.j.j.j.j.j.j.j.j.j.j.j.j.j.j.",
"j.j.j.j.j.j.j.j.j.j.j.j.j.j.j.j.j.j.r.g     y &.k O       = g q.j.j.j.j.j.j.j.j.j.j.j.j.j.j.j.j.j.j.j.j.j.j.j.j.j.j.j.j.",
"j.j.j.j.j.j.j.j.j.j.j.j.j.j.j.j.r.s     w <.j.j.j.h.t. .9       + y %.h.j.j.j.j.j.j.j.j.j.j.j.j.j.j.j.j.j.j.j.j.j.j.j.j.",
"j.j.j.j.j.j.j.j.j.j.j.j.j.j.r.g     w :.j.j.g.i.a.j.j.j.j.a.:.s       o 8 l y.j.j.j.j.j.j.j.j.j.j.j.j.j.j.j.j.j.j.j.j.j.",
"j.j.j.j.j.j.j.j.j.j.j.j.q.s     q -.j.j.d...l ,.a = ( 0.g.j.j.j.g.q. .7       + s 1.j.j.j.j.j.j.j.j.j.j.j.j.j.j.j.j.j.j.",
"j.j.j.j.j.j.j.j.j.j.q.s     q -.j.j.f...$ o j ,.i         p :.p.j.j.j.j.p.#.t       O e ..d.j.j.j.j.j.j.j.j.j.j.j.j.j.j.",
"j.j.j.j.j.j.j.j.r.g     q &.h.j.d...$   O   h ,.i o 6 > X       0  .t.h.j.j.j.g.7.( +     o = h q.j.j.j.j.j.j.j.j.j.j.j.",
"j.j.j.j.j.j.r.f     q -.j.j.f...$   + ( +.  j ,.p o F / / F 3 %       O l 6.d.j.j.j.h.y.X.9       O t O.g.j.j.j.j.j.j.j.",
"j.j.j.j.r.g     q &.h.j.d...$   + ( s.j.:.  j ,.s o F / / / / / Q n - o       y $.y.j.j.j.j.d.2.g O     o 8 l y.j.j.j.j.",
"j.j.y.=     q -.j.j.f...$   @ [ d.j.j.j.:.o j ,.i o F ^ / ^ ^ / / ^ ^ ! B : X       $ ( 7.g.j.j.j.g.q. .= o     + 9.j.j.",
"j.j.$   y <.j.j.d.{ @   + [ d.j.j.j.j.j.:.  j ,.a   F / ^ ^ ^ ^ ^ ^ ~ ^ ~ ^ ~ D 3 &       X g 1.s.j.j.j.h.6._ w   O j.j.",
"j.i.  u j.j.j.y.w       + u &.h.j.j.j.j.;.  j ,.p   A / ~ ^ ~ ~ ^ ~ W ^ ! W ~ ~ ^ W Q M ;         0 G 2.g.j.j.j.y   t.j.",
"j.u.  p f.j.j.j.j.s.<.s         0 G y.j.:.  j ,.a   F ! ^ W W ^ ~ W W ~ ~ W W W W W ~ W ~ ~ C #     O } d.j.j.d.y o q.j.",
"j.a.  y e.O. .t.h.j.j.j.g.t.{ @       $ e   j ,.p   A W ~ ^ W W W W W W W W W W W E W W T 1       { d.j.j.s.,.,.e   r.j.",
"j.p.  t e.|   o   d 1.d.j.j.j.j.a.:.t       @ s t   F W W W W W W W W ~ W W W W W W T <     O ' d.j.j.s.'   ) ,.e   r.j.",
"j.a.  y e.|   = +     o w X.y.h.j.j.j.g.9.` + o     X < S W W W W W W E W W E W T 3     O [ d.j.j.s.'       ) ,.e   r.j.",
"j.p.  t e.|   ..j.q.h = o   O O G 9.f.j.j.j.h.y.+.9       X ; b T W W E E E T 1       ' d.j.j.s.{     X %   ) ,.e   r.j.",
"j.p.  y e.|   ..j.j.j.j.d. .e O       u #.p.j.j.j.j.f.6.h         & 1 D T 3       [ d.j.j.s.'       1 Y :   ) ,.e   r.j.",
"j.p.  y e.|   | j.j.j.j.j.j.j.h.-.u +       = { t.h.j.j.j.g.t.} $           O ' d.j.j.s.{     O 4 Y E E : o ) ,.e   r.j.",
"j.p.  t e. .  ..j.j.j.j.j.j.j.j.j.j.j.y.u   O       d 1.d.j.j.j.j.s.:.t O ' d.j.j.s.'       3 Y E E R E : o ) ,.e   w.j.",
"j.p.  t e.|   ..j.j.j.j.j.j.j.j.j.j.j.j.:.  j } 9         w %.u.h.j.j.j.h.j.j.s.(       3 Y R R R R R R :   ) ,.e   r.j.",
"j.a.  y e.|   ..j.j.j.j.j.j.j.j.j.j.j.j.:.  j ,.a   b , #       @ ) q.g.j.d.(       4 Y R R P R R R R P :   ) ,.e   r.j.",
"j.p.. t e.|   ..j.j.j.j.j.j.j.j.j.j.j.j.;.  j ,.a   A E E U c *       ' 4.o.    4 Y R R R R R R P R R P :   ) ,.e   r.j.",
"j.a.  y e.|   ..j.j.j.j.j.j.j.j.j.j.j.j.:.  j ,.a   Z R R E E E R 1   ' ,.o.  3 R P R R P R P R R Y P Y : o ) ,.e   q.j.",
"j.a.  t e.|   ..j.j.j.j.j.j.j.j.j.j.j.j.:.  j ,.a   Z R R R R R R M   ' ,.o.  2 P R P P R P P R P P P P : o ) >.e   r.j.",
"j.p.  t e.|   ..j.j.j.j.j.j.j.j.j.j.j.j.*.  j ,.a   Z P R R R P P m   ' ,.o.  2 R P R P P P P P P P P P : o ) ,.e   r.j.",
"j.p.  t e.|   ..j.j.j.j.j.j.j.j.j.j.j.j.&.  j ,.p   < I P R P P R m   ' >.o.  2 P P P P P P P P P P P P : . ) 3.e   w.j.",
"j.p.  t e.|   ..j.j.j.j.j.j.j.j.j.j.g.O.@   j 3.s o     X : N R P m   ' 3.o.  2 P P P P P P P L L P P L :   ) >.e   w.j.",
"j.p.  y e.|   ..j.j.j.j.j.j.j.j.g.X.=   O h 7.e.e.3.] w         - ,   ' ,.o.  2 P L P P P P L P L P L L :   ) 3.e   r.j.",
"j.a.  t e.|   ..j.j.j.j.j.j.g.O.=   O g 3.e.e.7.e.e.e.e.8.+.f o       ' ,.o.  2 P P L P L L L L P L L L :   ) >.e   r.j.",
"j.a.  y e.|   ..j.j.j.j.g.O.=   O f 3.e.t.@.e   O f #.8.e.e.e.e.3.p   ) ,.o.  % v J L L L L P L L L L L :   ) ,.e   r.j.",
"j.p.  t e.| . ..j.j.g.X.=   O g 3.e.e.@.e     $ O .     r } 3.e.e.'   ' 3.o.        * 5 V L L L L K L L :   ) ,.e   r.j.",
"j.p.  t e.|   | g.O.=   O f 3.e.e.@.e     t 2.j.h.<.a @       = z k   ' ,.o.  p z @       X : x K K L L :   ) ,.e   r.j.",
"j.p.  y e. .  s =   O f 3.e.e.%.e     t 1.j.j.j.j.j.j.j.y._ 9 o       ] ,.o.  f e.e.3.o.w         * 5 H :   ) ,.e   w.j.",
"j.a.  y e.|     O f 3.e.e.@.e     r 2.j.j.j.j.j.j.j.j.j.j.j.j.g.X.0   ' ,.o.  r 3.w.e.e.e.8.#.g o           ) ,.e   r.j.",
"j.a.  t e.|   w 3.e.e.%.e     y 5.j.j.j.j.j.j.j.j.j.j.j.j.j.j.j.j.$.  ' ,.o.    o X g #.w.e.e.e.e.3.] 7     ) ,.e   r.j.",
"j.p.  t e.|   X e f w     y 5.j.j.j.j.j.j.j.j.j.j.j.j.j.j.j.j.j.j.$.  ' ,.o.  t w O o     y | 4.e.e.e.>.w . ) ,.e   r.j.",
"j.y.  t e.,.f =         = ..g.j.j.j.j.j.j.j.j.j.j.j.j.j.j.j.j.j.j.$.  ' ,.o.  G j.h.=.u @       = j p o   = o.,.e   0.j.",
"j.a.  = 8.e.e.e.=.G e         9 z t.j.j.j.j.j.j.j.j.j.j.j.j.j.j.j.$.  ' ,.o.  G j.j.j.j.j.t.l @ o o   7 ( >.,.*.=   y.j.",
"j.j.0   O t ) ,.e.e.e.7.o.d @       @ u -.h.j.j.j.j.j.j.j.j.j.j.j.$.  ' ,.o.  G j.j.j.j.j.2.9   o $ k =.,.=.z =   + j.j.",
"j.j.d.e O       9 k @.w.e.e.e.*.z 0       O q ' a.j.j.j.j.j.j.j.j.$.  ' ,.o.  G j.j.j.2.9     $ k >.3.=.z $     = p.j.j.",
"j.j.j.j.h.:.p @       @ u | 3.e.e.e.3.} a O       @ a :.j.j.j.j.j.+.  ' ,.o.  G j.5.0     = k >.,.=.z $   o 0 9.j.j.j.j.",
"j.j.j.j.j.j.j.j.y.( 0       O w G *.e.e.e.w.+.g = .     O e  .g.j.$.  ' ,.o.  u 9 o   = l =.,.=.z =     w q.j.j.j.j.j.j.",
"j.j.j.j.j.j.j.j.j.j.j.f.O.r O       = d o.8.e.e.e.,.) t X       = r   ` ,.o.    o $ l =.3.=.z $ o o q 7.j.j.j.j.j.j.j.j.",
"j.j.j.j.j.j.j.j.j.j.j.j.j.j.j.2.d $       O t ) <.e.e.e.7.o.f @       ' 3.o.  = l >.,.:.z $ o   w q.j.j.j.j.j.j.j.j.j.j.",
"j.j.j.j.j.j.j.j.j.j.j.j.j.j.j.j.j.j.p.' e O       0 k #.w.e.e.e.*.G q ' ,.+.z >.,.=.j $ o o 0 7.j.j.j.j.j.j.j.j.j.j.j.j.",
"j.j.j.j.j.j.j.j.j.j.j.j.j.j.j.j.j.j.j.j.j.h.<.a @       $ s | 7.e.e.e.4.,.,.,.=.j @     q 0.j.j.j.j.j.j.j.j.j.j.j.j.j.j.",
"j.j.j.j.j.j.j.j.j.j.j.j.j.j.j.j.j.j.j.j.j.j.j.j.j.r.l =       O e ( >.8.,.>.k @     w q.j.j.j.j.j.j.j.j.j.j.j.j.j.j.j.j.",
"j.j.j.j.j.j.j.j.j.j.j.j.j.j.j.j.j.j.j.j.j.j.j.j.j.j.j.j.g.X.r O .     7 G = o   w q.j.j.j.j.j.j.j.j.j.j.j.j.j.j.j.j.j.j.",
"j.j.j.j.j.j.j.j.j.j.j.j.j.j.j.j.j.j.j.j.j.j.j.j.j.j.j.j.j.j.j.j.2.d @       7 w.j.j.j.j.j.j.j.j.j.j.j.j.j.j.j.j.j.j.j.j.",
"j.j.j.j.j.j.j.j.j.j.j.j.j.j.j.j.j.j.j.j.j.j.j.j.j.j.j.j.j.j.j.j.j.j.j.y. .t.j.j.j.j.j.j.j.j.j.j.j.j.j.j.j.j.j.j.j.j.j.j.",
"j.j.j.j.j.j.j.j.j.j.j.j.j.j.j.j.j.j.j.j.j.j.j.j.j.j.j.j.j.j.j.j.j.j.j.j.j.j.j.j.j.j.j.j.j.j.j.j.j.j.j.j.j.j.j.j.j.j.j.j.",
"j.j.j.j.j.j.j.j.j.j.j.j.j.j.j.j.j.j.j.j.j.j.j.j.j.j.j.j.j.j.j.j.j.j.j.j.j.j.j.j.j.j.j.j.j.j.j.j.j.j.j.j.j.j.j.j.j.j.j.j.",
"j.j.j.j.j.j.j.j.j.j.j.j.j.j.j.j.j.j.j.j.j.j.j.j.j.j.j.j.j.j.j.j.j.j.j.j.j.j.j.j.j.j.j.j.j.j.j.j.j.j.j.j.j.j.j.j.j.j.j.j."
};
